<?xml version="1.0" encoding="utf-8" standalone="no"?>
<!DOCTYPE svg PUBLIC "-//W3C//DTD SVG 1.1//EN"
  "http://www.w3.org/Graphics/SVG/1.1/DTD/svg11.dtd">
<!-- Created with matplotlib (http://matplotlib.org/) -->
<svg height="279.222344pt" version="1.1" viewBox="0 0 1441.153051 279.222344" width="1441.153051pt" xmlns="http://www.w3.org/2000/svg" xmlns:xlink="http://www.w3.org/1999/xlink">
 <defs>
  <style type="text/css">
*{stroke-linecap:butt;stroke-linejoin:round;}
  </style>
 </defs>
 <g id="figure_1">
  <g id="patch_1">
   <path d="M 0 279.222344 
L 1441.153051 279.222344 
L 1441.153051 0 
L 0 0 
z
" style="fill:#ffffff;"/>
  </g>
  <g id="axes_1">
   <g id="patch_2">
    <path d="M 100.791687 222.11 
L 277.898067 222.11 
L 277.898067 32.31 
L 100.791687 32.31 
z
" style="fill:#ffffff;"/>
   </g>
   <g id="matplotlib.axis_1">
    <g id="xtick_1">
     <g id="line2d_1">
      <defs>
       <path d="M 0 0 
L 0 3.5 
" id="m79e1856119" style="stroke:#000000;stroke-width:0.8;"/>
      </defs>
      <g>
       <use style="stroke:#000000;stroke-width:0.8;" x="108.841977" xlink:href="#m79e1856119" y="222.11"/>
      </g>
     </g>
     <g id="text_1">
      <!-- 0 -->
      <defs>
       <path d="M 4.15625 35.296875 
Q 4.15625 48 6.765625 55.734375 
Q 9.375 63.484375 14.515625 67.671875 
Q 19.671875 71.875 27.484375 71.875 
Q 33.25 71.875 37.59375 69.546875 
Q 41.9375 67.234375 44.765625 62.859375 
Q 47.609375 58.5 49.21875 52.21875 
Q 50.828125 45.953125 50.828125 35.296875 
Q 50.828125 22.703125 48.234375 14.96875 
Q 45.65625 7.234375 40.5 3 
Q 35.359375 -1.21875 27.484375 -1.21875 
Q 17.140625 -1.21875 11.234375 6.203125 
Q 4.15625 15.140625 4.15625 35.296875 
z
M 13.1875 35.296875 
Q 13.1875 17.671875 17.3125 11.828125 
Q 21.4375 6 27.484375 6 
Q 33.546875 6 37.671875 11.859375 
Q 41.796875 17.71875 41.796875 35.296875 
Q 41.796875 52.984375 37.671875 58.78125 
Q 33.546875 64.59375 27.390625 64.59375 
Q 21.34375 64.59375 17.71875 59.46875 
Q 13.1875 52.9375 13.1875 35.296875 
z
" id="ArialMT-30"/>
      </defs>
      <g transform="translate(103.002993 244.141406)scale(0.21 -0.21)">
       <use xlink:href="#ArialMT-30"/>
      </g>
     </g>
    </g>
    <g id="xtick_2">
     <g id="line2d_2">
      <g>
       <use style="stroke:#000000;stroke-width:0.8;" x="162.510577" xlink:href="#m79e1856119" y="222.11"/>
      </g>
     </g>
     <g id="text_2">
      <!-- 1 -->
      <defs>
       <path d="M 37.25 0 
L 28.46875 0 
L 28.46875 56 
Q 25.296875 52.984375 20.140625 49.953125 
Q 14.984375 46.921875 10.890625 45.40625 
L 10.890625 53.90625 
Q 18.265625 57.375 23.78125 62.296875 
Q 29.296875 67.234375 31.59375 71.875 
L 37.25 71.875 
z
" id="ArialMT-31"/>
      </defs>
      <g transform="translate(156.671593 244.141406)scale(0.21 -0.21)">
       <use xlink:href="#ArialMT-31"/>
      </g>
     </g>
    </g>
    <g id="xtick_3">
     <g id="line2d_3">
      <g>
       <use style="stroke:#000000;stroke-width:0.8;" x="216.179177" xlink:href="#m79e1856119" y="222.11"/>
      </g>
     </g>
     <g id="text_3">
      <!-- 2 -->
      <defs>
       <path d="M 50.34375 8.453125 
L 50.34375 0 
L 3.03125 0 
Q 2.9375 3.171875 4.046875 6.109375 
Q 5.859375 10.9375 9.828125 15.625 
Q 13.8125 20.3125 21.34375 26.46875 
Q 33.015625 36.03125 37.109375 41.625 
Q 41.21875 47.21875 41.21875 52.203125 
Q 41.21875 57.421875 37.46875 61 
Q 33.734375 64.59375 27.734375 64.59375 
Q 21.390625 64.59375 17.578125 60.78125 
Q 13.765625 56.984375 13.71875 50.25 
L 4.6875 51.171875 
Q 5.609375 61.28125 11.65625 66.578125 
Q 17.71875 71.875 27.9375 71.875 
Q 38.234375 71.875 44.234375 66.15625 
Q 50.25 60.453125 50.25 52 
Q 50.25 47.703125 48.484375 43.546875 
Q 46.734375 39.40625 42.65625 34.8125 
Q 38.578125 30.21875 29.109375 22.21875 
Q 21.1875 15.578125 18.9375 13.203125 
Q 16.703125 10.84375 15.234375 8.453125 
z
" id="ArialMT-32"/>
      </defs>
      <g transform="translate(210.340193 244.141406)scale(0.21 -0.21)">
       <use xlink:href="#ArialMT-32"/>
      </g>
     </g>
    </g>
    <g id="xtick_4">
     <g id="line2d_4">
      <g>
       <use style="stroke:#000000;stroke-width:0.8;" x="269.847777" xlink:href="#m79e1856119" y="222.11"/>
      </g>
     </g>
     <g id="text_4">
      <!-- 3 -->
      <defs>
       <path d="M 4.203125 18.890625 
L 12.984375 20.0625 
Q 14.5 12.59375 18.140625 9.296875 
Q 21.78125 6 27 6 
Q 33.203125 6 37.46875 10.296875 
Q 41.75 14.59375 41.75 20.953125 
Q 41.75 27 37.796875 30.921875 
Q 33.84375 34.859375 27.734375 34.859375 
Q 25.25 34.859375 21.53125 33.890625 
L 22.515625 41.609375 
Q 23.390625 41.5 23.921875 41.5 
Q 29.546875 41.5 34.03125 44.421875 
Q 38.53125 47.359375 38.53125 53.46875 
Q 38.53125 58.296875 35.25 61.46875 
Q 31.984375 64.65625 26.8125 64.65625 
Q 21.6875 64.65625 18.265625 61.421875 
Q 14.84375 58.203125 13.875 51.765625 
L 5.078125 53.328125 
Q 6.6875 62.15625 12.390625 67.015625 
Q 18.109375 71.875 26.609375 71.875 
Q 32.46875 71.875 37.390625 69.359375 
Q 42.328125 66.84375 44.9375 62.5 
Q 47.5625 58.15625 47.5625 53.265625 
Q 47.5625 48.640625 45.0625 44.828125 
Q 42.578125 41.015625 37.703125 38.765625 
Q 44.046875 37.3125 47.5625 32.6875 
Q 51.078125 28.078125 51.078125 21.140625 
Q 51.078125 11.765625 44.234375 5.25 
Q 37.40625 -1.265625 26.953125 -1.265625 
Q 17.53125 -1.265625 11.296875 4.34375 
Q 5.078125 9.96875 4.203125 18.890625 
z
" id="ArialMT-33"/>
      </defs>
      <g transform="translate(264.008792 244.141406)scale(0.21 -0.21)">
       <use xlink:href="#ArialMT-33"/>
      </g>
     </g>
    </g>
    <g id="text_5">
     <!-- Time (h) -->
     <defs>
      <path d="M 25.921875 0 
L 25.921875 63.140625 
L 2.34375 63.140625 
L 2.34375 71.578125 
L 59.078125 71.578125 
L 59.078125 63.140625 
L 35.40625 63.140625 
L 35.40625 0 
z
" id="ArialMT-54"/>
      <path d="M 6.640625 61.46875 
L 6.640625 71.578125 
L 15.4375 71.578125 
L 15.4375 61.46875 
z
M 6.640625 0 
L 6.640625 51.859375 
L 15.4375 51.859375 
L 15.4375 0 
z
" id="ArialMT-69"/>
      <path d="M 6.59375 0 
L 6.59375 51.859375 
L 14.453125 51.859375 
L 14.453125 44.578125 
Q 16.890625 48.390625 20.9375 50.703125 
Q 25 53.03125 30.171875 53.03125 
Q 35.9375 53.03125 39.625 50.640625 
Q 43.3125 48.25 44.828125 43.953125 
Q 50.984375 53.03125 60.84375 53.03125 
Q 68.5625 53.03125 72.703125 48.75 
Q 76.859375 44.484375 76.859375 35.59375 
L 76.859375 0 
L 68.109375 0 
L 68.109375 32.671875 
Q 68.109375 37.9375 67.25 40.25 
Q 66.40625 42.578125 64.15625 43.984375 
Q 61.921875 45.40625 58.890625 45.40625 
Q 53.421875 45.40625 49.796875 41.765625 
Q 46.1875 38.140625 46.1875 30.125 
L 46.1875 0 
L 37.40625 0 
L 37.40625 33.6875 
Q 37.40625 39.546875 35.25 42.46875 
Q 33.109375 45.40625 28.21875 45.40625 
Q 24.515625 45.40625 21.359375 43.453125 
Q 18.21875 41.5 16.796875 37.734375 
Q 15.375 33.984375 15.375 26.90625 
L 15.375 0 
z
" id="ArialMT-6d"/>
      <path d="M 42.09375 16.703125 
L 51.171875 15.578125 
Q 49.03125 7.625 43.21875 3.21875 
Q 37.40625 -1.171875 28.375 -1.171875 
Q 17 -1.171875 10.328125 5.828125 
Q 3.65625 12.84375 3.65625 25.484375 
Q 3.65625 38.578125 10.390625 45.796875 
Q 17.140625 53.03125 27.875 53.03125 
Q 38.28125 53.03125 44.875 45.953125 
Q 51.46875 38.875 51.46875 26.03125 
Q 51.46875 25.25 51.421875 23.6875 
L 12.75 23.6875 
Q 13.234375 15.140625 17.578125 10.59375 
Q 21.921875 6.0625 28.421875 6.0625 
Q 33.25 6.0625 36.671875 8.59375 
Q 40.09375 11.140625 42.09375 16.703125 
z
M 13.234375 30.90625 
L 42.1875 30.90625 
Q 41.609375 37.453125 38.875 40.71875 
Q 34.671875 45.796875 27.984375 45.796875 
Q 21.921875 45.796875 17.796875 41.75 
Q 13.671875 37.703125 13.234375 30.90625 
z
" id="ArialMT-65"/>
      <path id="ArialMT-20"/>
      <path d="M 23.390625 -21.046875 
Q 16.109375 -11.859375 11.078125 0.4375 
Q 6.0625 12.75 6.0625 25.921875 
Q 6.0625 37.546875 9.8125 48.1875 
Q 14.203125 60.546875 23.390625 72.796875 
L 29.6875 72.796875 
Q 23.78125 62.640625 21.875 58.296875 
Q 18.890625 51.5625 17.1875 44.234375 
Q 15.09375 35.109375 15.09375 25.875 
Q 15.09375 2.390625 29.6875 -21.046875 
z
" id="ArialMT-28"/>
      <path d="M 6.59375 0 
L 6.59375 71.578125 
L 15.375 71.578125 
L 15.375 45.90625 
Q 21.53125 53.03125 30.90625 53.03125 
Q 36.671875 53.03125 40.921875 50.75 
Q 45.171875 48.484375 47 44.484375 
Q 48.828125 40.484375 48.828125 32.859375 
L 48.828125 0 
L 40.046875 0 
L 40.046875 32.859375 
Q 40.046875 39.453125 37.1875 42.453125 
Q 34.328125 45.453125 29.109375 45.453125 
Q 25.203125 45.453125 21.75 43.421875 
Q 18.3125 41.40625 16.84375 37.9375 
Q 15.375 34.46875 15.375 28.375 
L 15.375 0 
z
" id="ArialMT-68"/>
      <path d="M 12.359375 -21.046875 
L 6.0625 -21.046875 
Q 20.65625 2.390625 20.65625 25.875 
Q 20.65625 35.0625 18.5625 44.09375 
Q 16.890625 51.421875 13.921875 58.15625 
Q 12.015625 62.546875 6.0625 72.796875 
L 12.359375 72.796875 
Q 21.53125 60.546875 25.921875 48.1875 
Q 29.6875 37.546875 29.6875 25.921875 
Q 29.6875 12.75 24.625 0.4375 
Q 19.578125 -11.859375 12.359375 -21.046875 
z
" id="ArialMT-29"/>
     </defs>
     <g transform="translate(150.270112 267.6025)scale(0.21 -0.21)">
      <use xlink:href="#ArialMT-54"/>
      <use x="61.037109" xlink:href="#ArialMT-69"/>
      <use x="83.253906" xlink:href="#ArialMT-6d"/>
      <use x="166.554688" xlink:href="#ArialMT-65"/>
      <use x="222.169922" xlink:href="#ArialMT-20"/>
      <use x="249.953125" xlink:href="#ArialMT-28"/>
      <use x="283.253906" xlink:href="#ArialMT-68"/>
      <use x="338.869141" xlink:href="#ArialMT-29"/>
     </g>
    </g>
   </g>
   <g id="matplotlib.axis_2">
    <g id="ytick_1">
     <g id="line2d_5">
      <defs>
       <path d="M 0 0 
L -3.5 0 
" id="m5610d361e2" style="stroke:#000000;stroke-width:0.8;"/>
      </defs>
      <g>
       <use style="stroke:#000000;stroke-width:0.8;" x="100.791687" xlink:href="#m5610d361e2" y="213.482727"/>
      </g>
     </g>
     <g id="text_6">
      <!-- 1.00 -->
      <defs>
       <path d="M 9.078125 0 
L 9.078125 10.015625 
L 19.09375 10.015625 
L 19.09375 0 
z
" id="ArialMT-2e"/>
      </defs>
      <g transform="translate(52.923719 220.99843)scale(0.21 -0.21)">
       <use xlink:href="#ArialMT-31"/>
       <use x="55.615234" xlink:href="#ArialMT-2e"/>
       <use x="83.398438" xlink:href="#ArialMT-30"/>
       <use x="139.013672" xlink:href="#ArialMT-30"/>
      </g>
     </g>
    </g>
    <g id="ytick_2">
     <g id="line2d_6">
      <g>
       <use style="stroke:#000000;stroke-width:0.8;" x="100.791687" xlink:href="#m5610d361e2" y="189.544335"/>
      </g>
     </g>
     <g id="text_7">
      <!-- 1.05 -->
      <defs>
       <path d="M 4.15625 18.75 
L 13.375 19.53125 
Q 14.40625 12.796875 18.140625 9.390625 
Q 21.875 6 27.15625 6 
Q 33.5 6 37.890625 10.78125 
Q 42.28125 15.578125 42.28125 23.484375 
Q 42.28125 31 38.0625 35.34375 
Q 33.84375 39.703125 27 39.703125 
Q 22.75 39.703125 19.328125 37.765625 
Q 15.921875 35.84375 13.96875 32.765625 
L 5.71875 33.84375 
L 12.640625 70.609375 
L 48.25 70.609375 
L 48.25 62.203125 
L 19.671875 62.203125 
L 15.828125 42.96875 
Q 22.265625 47.46875 29.34375 47.46875 
Q 38.71875 47.46875 45.15625 40.96875 
Q 51.609375 34.46875 51.609375 24.265625 
Q 51.609375 14.546875 45.953125 7.46875 
Q 39.0625 -1.21875 27.15625 -1.21875 
Q 17.390625 -1.21875 11.203125 4.25 
Q 5.03125 9.71875 4.15625 18.75 
z
" id="ArialMT-35"/>
      </defs>
      <g transform="translate(52.923719 197.060038)scale(0.21 -0.21)">
       <use xlink:href="#ArialMT-31"/>
       <use x="55.615234" xlink:href="#ArialMT-2e"/>
       <use x="83.398438" xlink:href="#ArialMT-30"/>
       <use x="139.013672" xlink:href="#ArialMT-35"/>
      </g>
     </g>
    </g>
    <g id="ytick_3">
     <g id="line2d_7">
      <g>
       <use style="stroke:#000000;stroke-width:0.8;" x="100.791687" xlink:href="#m5610d361e2" y="165.605942"/>
      </g>
     </g>
     <g id="text_8">
      <!-- 1.10 -->
      <g transform="translate(52.923719 173.121645)scale(0.21 -0.21)">
       <use xlink:href="#ArialMT-31"/>
       <use x="55.615234" xlink:href="#ArialMT-2e"/>
       <use x="83.398438" xlink:href="#ArialMT-31"/>
       <use x="139.013672" xlink:href="#ArialMT-30"/>
      </g>
     </g>
    </g>
    <g id="ytick_4">
     <g id="line2d_8">
      <g>
       <use style="stroke:#000000;stroke-width:0.8;" x="100.791687" xlink:href="#m5610d361e2" y="141.667549"/>
      </g>
     </g>
     <g id="text_9">
      <!-- 1.15 -->
      <g transform="translate(52.923719 149.183252)scale(0.21 -0.21)">
       <use xlink:href="#ArialMT-31"/>
       <use x="55.615234" xlink:href="#ArialMT-2e"/>
       <use x="83.398438" xlink:href="#ArialMT-31"/>
       <use x="139.013672" xlink:href="#ArialMT-35"/>
      </g>
     </g>
    </g>
    <g id="ytick_5">
     <g id="line2d_9">
      <g>
       <use style="stroke:#000000;stroke-width:0.8;" x="100.791687" xlink:href="#m5610d361e2" y="117.729157"/>
      </g>
     </g>
     <g id="text_10">
      <!-- 1.20 -->
      <g transform="translate(52.923719 125.24486)scale(0.21 -0.21)">
       <use xlink:href="#ArialMT-31"/>
       <use x="55.615234" xlink:href="#ArialMT-2e"/>
       <use x="83.398438" xlink:href="#ArialMT-32"/>
       <use x="139.013672" xlink:href="#ArialMT-30"/>
      </g>
     </g>
    </g>
    <g id="ytick_6">
     <g id="line2d_10">
      <g>
       <use style="stroke:#000000;stroke-width:0.8;" x="100.791687" xlink:href="#m5610d361e2" y="93.790764"/>
      </g>
     </g>
     <g id="text_11">
      <!-- 1.25 -->
      <g transform="translate(52.923719 101.306467)scale(0.21 -0.21)">
       <use xlink:href="#ArialMT-31"/>
       <use x="55.615234" xlink:href="#ArialMT-2e"/>
       <use x="83.398438" xlink:href="#ArialMT-32"/>
       <use x="139.013672" xlink:href="#ArialMT-35"/>
      </g>
     </g>
    </g>
    <g id="ytick_7">
     <g id="line2d_11">
      <g>
       <use style="stroke:#000000;stroke-width:0.8;" x="100.791687" xlink:href="#m5610d361e2" y="69.852371"/>
      </g>
     </g>
     <g id="text_12">
      <!-- 1.30 -->
      <g transform="translate(52.923719 77.368074)scale(0.21 -0.21)">
       <use xlink:href="#ArialMT-31"/>
       <use x="55.615234" xlink:href="#ArialMT-2e"/>
       <use x="83.398438" xlink:href="#ArialMT-33"/>
       <use x="139.013672" xlink:href="#ArialMT-30"/>
      </g>
     </g>
    </g>
    <g id="ytick_8">
     <g id="line2d_12">
      <g>
       <use style="stroke:#000000;stroke-width:0.8;" x="100.791687" xlink:href="#m5610d361e2" y="45.913978"/>
      </g>
     </g>
     <g id="text_13">
      <!-- 1.35 -->
      <g transform="translate(52.923719 53.429682)scale(0.21 -0.21)">
       <use xlink:href="#ArialMT-31"/>
       <use x="55.615234" xlink:href="#ArialMT-2e"/>
       <use x="83.398438" xlink:href="#ArialMT-33"/>
       <use x="139.013672" xlink:href="#ArialMT-35"/>
      </g>
     </g>
    </g>
    <g id="text_14">
     <!-- Relative Concentration  -->
     <defs>
      <path d="M 7.859375 0 
L 7.859375 71.578125 
L 39.59375 71.578125 
Q 49.171875 71.578125 54.140625 69.640625 
Q 59.125 67.71875 62.109375 62.828125 
Q 65.09375 57.953125 65.09375 52.046875 
Q 65.09375 44.4375 60.15625 39.203125 
Q 55.21875 33.984375 44.921875 32.5625 
Q 48.6875 30.765625 50.640625 29 
Q 54.78125 25.203125 58.5 19.484375 
L 70.953125 0 
L 59.03125 0 
L 49.5625 14.890625 
Q 45.40625 21.34375 42.71875 24.75 
Q 40.046875 28.171875 37.921875 29.53125 
Q 35.796875 30.90625 33.59375 31.453125 
Q 31.984375 31.78125 28.328125 31.78125 
L 17.328125 31.78125 
L 17.328125 0 
z
M 17.328125 39.984375 
L 37.703125 39.984375 
Q 44.1875 39.984375 47.84375 41.328125 
Q 51.515625 42.671875 53.421875 45.625 
Q 55.328125 48.578125 55.328125 52.046875 
Q 55.328125 57.125 51.640625 60.390625 
Q 47.953125 63.671875 39.984375 63.671875 
L 17.328125 63.671875 
z
" id="ArialMT-52"/>
      <path d="M 6.390625 0 
L 6.390625 71.578125 
L 15.1875 71.578125 
L 15.1875 0 
z
" id="ArialMT-6c"/>
      <path d="M 40.4375 6.390625 
Q 35.546875 2.25 31.03125 0.53125 
Q 26.515625 -1.171875 21.34375 -1.171875 
Q 12.796875 -1.171875 8.203125 3 
Q 3.609375 7.171875 3.609375 13.671875 
Q 3.609375 17.484375 5.34375 20.625 
Q 7.078125 23.78125 9.890625 25.6875 
Q 12.703125 27.59375 16.21875 28.5625 
Q 18.796875 29.25 24.03125 29.890625 
Q 34.671875 31.15625 39.703125 32.90625 
Q 39.75 34.71875 39.75 35.203125 
Q 39.75 40.578125 37.25 42.78125 
Q 33.890625 45.75 27.25 45.75 
Q 21.046875 45.75 18.09375 43.578125 
Q 15.140625 41.40625 13.71875 35.890625 
L 5.125 37.0625 
Q 6.296875 42.578125 8.984375 45.96875 
Q 11.671875 49.359375 16.75 51.1875 
Q 21.828125 53.03125 28.515625 53.03125 
Q 35.15625 53.03125 39.296875 51.46875 
Q 43.453125 49.90625 45.40625 47.53125 
Q 47.359375 45.171875 48.140625 41.546875 
Q 48.578125 39.3125 48.578125 33.453125 
L 48.578125 21.734375 
Q 48.578125 9.46875 49.140625 6.21875 
Q 49.703125 2.984375 51.375 0 
L 42.1875 0 
Q 40.828125 2.734375 40.4375 6.390625 
z
M 39.703125 26.03125 
Q 34.90625 24.078125 25.34375 22.703125 
Q 19.921875 21.921875 17.671875 20.9375 
Q 15.4375 19.96875 14.203125 18.09375 
Q 12.984375 16.21875 12.984375 13.921875 
Q 12.984375 10.40625 15.640625 8.0625 
Q 18.3125 5.71875 23.4375 5.71875 
Q 28.515625 5.71875 32.46875 7.9375 
Q 36.421875 10.15625 38.28125 14.015625 
Q 39.703125 17 39.703125 22.796875 
z
" id="ArialMT-61"/>
      <path d="M 25.78125 7.859375 
L 27.046875 0.09375 
Q 23.34375 -0.6875 20.40625 -0.6875 
Q 15.625 -0.6875 12.984375 0.828125 
Q 10.359375 2.34375 9.28125 4.8125 
Q 8.203125 7.28125 8.203125 15.1875 
L 8.203125 45.015625 
L 1.765625 45.015625 
L 1.765625 51.859375 
L 8.203125 51.859375 
L 8.203125 64.703125 
L 16.9375 69.96875 
L 16.9375 51.859375 
L 25.78125 51.859375 
L 25.78125 45.015625 
L 16.9375 45.015625 
L 16.9375 14.703125 
Q 16.9375 10.9375 17.40625 9.859375 
Q 17.875 8.796875 18.921875 8.15625 
Q 19.96875 7.515625 21.921875 7.515625 
Q 23.390625 7.515625 25.78125 7.859375 
z
" id="ArialMT-74"/>
      <path d="M 21 0 
L 1.265625 51.859375 
L 10.546875 51.859375 
L 21.6875 20.796875 
Q 23.484375 15.765625 25 10.359375 
Q 26.171875 14.453125 28.265625 20.21875 
L 39.796875 51.859375 
L 48.828125 51.859375 
L 29.203125 0 
z
" id="ArialMT-76"/>
      <path d="M 58.796875 25.09375 
L 68.265625 22.703125 
Q 65.28125 11.03125 57.546875 4.90625 
Q 49.8125 -1.21875 38.625 -1.21875 
Q 27.046875 -1.21875 19.796875 3.484375 
Q 12.546875 8.203125 8.765625 17.140625 
Q 4.984375 26.078125 4.984375 36.328125 
Q 4.984375 47.515625 9.25 55.828125 
Q 13.53125 64.15625 21.40625 68.46875 
Q 29.296875 72.796875 38.765625 72.796875 
Q 49.515625 72.796875 56.828125 67.328125 
Q 64.15625 61.859375 67.046875 51.953125 
L 57.71875 49.75 
Q 55.21875 57.5625 50.484375 61.125 
Q 45.75 64.703125 38.578125 64.703125 
Q 30.328125 64.703125 24.78125 60.734375 
Q 19.234375 56.78125 16.984375 50.109375 
Q 14.75 43.453125 14.75 36.375 
Q 14.75 27.25 17.40625 20.4375 
Q 20.0625 13.625 25.671875 10.25 
Q 31.296875 6.890625 37.84375 6.890625 
Q 45.796875 6.890625 51.3125 11.46875 
Q 56.84375 16.0625 58.796875 25.09375 
z
" id="ArialMT-43"/>
      <path d="M 3.328125 25.921875 
Q 3.328125 40.328125 11.328125 47.265625 
Q 18.015625 53.03125 27.640625 53.03125 
Q 38.328125 53.03125 45.109375 46.015625 
Q 51.90625 39.015625 51.90625 26.65625 
Q 51.90625 16.65625 48.90625 10.90625 
Q 45.90625 5.171875 40.15625 2 
Q 34.421875 -1.171875 27.640625 -1.171875 
Q 16.75 -1.171875 10.03125 5.8125 
Q 3.328125 12.796875 3.328125 25.921875 
z
M 12.359375 25.921875 
Q 12.359375 15.96875 16.703125 11.015625 
Q 21.046875 6.0625 27.640625 6.0625 
Q 34.1875 6.0625 38.53125 11.03125 
Q 42.875 16.015625 42.875 26.21875 
Q 42.875 35.84375 38.5 40.796875 
Q 34.125 45.75 27.640625 45.75 
Q 21.046875 45.75 16.703125 40.8125 
Q 12.359375 35.890625 12.359375 25.921875 
z
" id="ArialMT-6f"/>
      <path d="M 6.59375 0 
L 6.59375 51.859375 
L 14.5 51.859375 
L 14.5 44.484375 
Q 20.21875 53.03125 31 53.03125 
Q 35.6875 53.03125 39.625 51.34375 
Q 43.5625 49.65625 45.515625 46.921875 
Q 47.46875 44.1875 48.25 40.4375 
Q 48.734375 37.984375 48.734375 31.890625 
L 48.734375 0 
L 39.9375 0 
L 39.9375 31.546875 
Q 39.9375 36.921875 38.90625 39.578125 
Q 37.890625 42.234375 35.28125 43.8125 
Q 32.671875 45.40625 29.15625 45.40625 
Q 23.53125 45.40625 19.453125 41.84375 
Q 15.375 38.28125 15.375 28.328125 
L 15.375 0 
z
" id="ArialMT-6e"/>
      <path d="M 40.4375 19 
L 49.078125 17.875 
Q 47.65625 8.9375 41.8125 3.875 
Q 35.984375 -1.171875 27.484375 -1.171875 
Q 16.84375 -1.171875 10.375 5.78125 
Q 3.90625 12.75 3.90625 25.734375 
Q 3.90625 34.125 6.6875 40.421875 
Q 9.46875 46.734375 15.15625 49.875 
Q 20.84375 53.03125 27.546875 53.03125 
Q 35.984375 53.03125 41.359375 48.75 
Q 46.734375 44.484375 48.25 36.625 
L 39.703125 35.296875 
Q 38.484375 40.53125 35.375 43.15625 
Q 32.28125 45.796875 27.875 45.796875 
Q 21.234375 45.796875 17.078125 41.03125 
Q 12.9375 36.28125 12.9375 25.984375 
Q 12.9375 15.53125 16.9375 10.796875 
Q 20.953125 6.0625 27.390625 6.0625 
Q 32.5625 6.0625 36.03125 9.234375 
Q 39.5 12.40625 40.4375 19 
z
" id="ArialMT-63"/>
      <path d="M 6.5 0 
L 6.5 51.859375 
L 14.40625 51.859375 
L 14.40625 44 
Q 17.4375 49.515625 20 51.265625 
Q 22.5625 53.03125 25.640625 53.03125 
Q 30.078125 53.03125 34.671875 50.203125 
L 31.640625 42.046875 
Q 28.421875 43.953125 25.203125 43.953125 
Q 22.3125 43.953125 20.015625 42.21875 
Q 17.71875 40.484375 16.75 37.40625 
Q 15.28125 32.71875 15.28125 27.15625 
L 15.28125 0 
z
" id="ArialMT-72"/>
     </defs>
     <g transform="translate(21.985312 236.346016)rotate(-90)scale(0.21 -0.21)">
      <use xlink:href="#ArialMT-52"/>
      <use x="72.216797" xlink:href="#ArialMT-65"/>
      <use x="127.832031" xlink:href="#ArialMT-6c"/>
      <use x="150.048828" xlink:href="#ArialMT-61"/>
      <use x="205.664062" xlink:href="#ArialMT-74"/>
      <use x="233.447266" xlink:href="#ArialMT-69"/>
      <use x="255.664062" xlink:href="#ArialMT-76"/>
      <use x="305.664062" xlink:href="#ArialMT-65"/>
      <use x="361.279297" xlink:href="#ArialMT-20"/>
      <use x="389.0625" xlink:href="#ArialMT-43"/>
      <use x="461.279297" xlink:href="#ArialMT-6f"/>
      <use x="516.894531" xlink:href="#ArialMT-6e"/>
      <use x="572.509766" xlink:href="#ArialMT-63"/>
      <use x="622.509766" xlink:href="#ArialMT-65"/>
      <use x="678.125" xlink:href="#ArialMT-6e"/>
      <use x="733.740234" xlink:href="#ArialMT-74"/>
      <use x="761.523438" xlink:href="#ArialMT-72"/>
      <use x="794.824219" xlink:href="#ArialMT-61"/>
      <use x="850.439453" xlink:href="#ArialMT-74"/>
      <use x="878.222656" xlink:href="#ArialMT-69"/>
      <use x="900.439453" xlink:href="#ArialMT-6f"/>
      <use x="956.054688" xlink:href="#ArialMT-6e"/>
      <use x="1011.669922" xlink:href="#ArialMT-20"/>
     </g>
     <!--  (To initial condition) -->
     <defs>
      <path d="M 40.234375 0 
L 40.234375 6.546875 
Q 35.296875 -1.171875 25.734375 -1.171875 
Q 19.53125 -1.171875 14.328125 2.25 
Q 9.125 5.671875 6.265625 11.796875 
Q 3.421875 17.921875 3.421875 25.875 
Q 3.421875 33.640625 6 39.96875 
Q 8.59375 46.296875 13.765625 49.65625 
Q 18.953125 53.03125 25.34375 53.03125 
Q 30.03125 53.03125 33.6875 51.046875 
Q 37.359375 49.078125 39.65625 45.90625 
L 39.65625 71.578125 
L 48.390625 71.578125 
L 48.390625 0 
z
M 12.453125 25.875 
Q 12.453125 15.921875 16.640625 10.984375 
Q 20.84375 6.0625 26.5625 6.0625 
Q 32.328125 6.0625 36.34375 10.765625 
Q 40.375 15.484375 40.375 25.140625 
Q 40.375 35.796875 36.265625 40.765625 
Q 32.171875 45.75 26.171875 45.75 
Q 20.3125 45.75 16.375 40.96875 
Q 12.453125 36.1875 12.453125 25.875 
z
" id="ArialMT-64"/>
     </defs>
     <g transform="translate(44.503875 221.142344)rotate(-90)scale(0.21 -0.21)">
      <use xlink:href="#ArialMT-20"/>
      <use x="27.783203" xlink:href="#ArialMT-28"/>
      <use x="61.083984" xlink:href="#ArialMT-54"/>
      <use x="121.996094" xlink:href="#ArialMT-6f"/>
      <use x="177.611328" xlink:href="#ArialMT-20"/>
      <use x="205.394531" xlink:href="#ArialMT-69"/>
      <use x="227.611328" xlink:href="#ArialMT-6e"/>
      <use x="283.226562" xlink:href="#ArialMT-69"/>
      <use x="305.443359" xlink:href="#ArialMT-74"/>
      <use x="333.226562" xlink:href="#ArialMT-69"/>
      <use x="355.443359" xlink:href="#ArialMT-61"/>
      <use x="411.058594" xlink:href="#ArialMT-6c"/>
      <use x="433.275391" xlink:href="#ArialMT-20"/>
      <use x="461.058594" xlink:href="#ArialMT-63"/>
      <use x="511.058594" xlink:href="#ArialMT-6f"/>
      <use x="566.673828" xlink:href="#ArialMT-6e"/>
      <use x="622.289062" xlink:href="#ArialMT-64"/>
      <use x="677.904297" xlink:href="#ArialMT-69"/>
      <use x="700.121094" xlink:href="#ArialMT-74"/>
      <use x="727.904297" xlink:href="#ArialMT-69"/>
      <use x="750.121094" xlink:href="#ArialMT-6f"/>
      <use x="805.736328" xlink:href="#ArialMT-6e"/>
      <use x="861.351562" xlink:href="#ArialMT-29"/>
     </g>
    </g>
   </g>
   <g id="line2d_13">
    <path clip-path="url(#pfb155be7e0)" d="M 108.841977 213.482727 
L 109.736454 102.184512 
L 110.630931 99.816729 
L 111.525407 98.365706 
L 112.419884 97.313949 
L 113.314361 96.512452 
L 115.103314 95.35822 
L 117.786744 94.100458 
L 122.259127 92.075018 
L 126.731511 89.74835 
L 133.887324 85.684643 
L 142.832091 80.650606 
L 149.987904 76.886612 
L 157.143717 73.398544 
L 164.299531 70.176441 
L 171.455344 67.197685 
L 179.505634 64.105566 
L 188.4504 60.952277 
L 197.395167 58.058836 
L 206.339934 55.391015 
L 216.179177 52.680864 
L 226.912897 49.957411 
L 238.541094 47.246419 
L 251.063767 44.565885 
L 264.480917 41.930614 
L 269.847777 40.937273 
L 269.847777 40.937273 
" style="fill:none;stroke:#000000;stroke-linecap:square;stroke-width:3;"/>
   </g>
   <g id="line2d_14">
    <path clip-path="url(#pfb155be7e0)" d="M 108.841977 213.482727 
L 117.786744 93.790764 
L 126.731511 93.790764 
L 135.676277 93.790764 
L 144.621044 93.790764 
L 153.565811 93.790764 
L 162.510577 93.790764 
L 171.455344 93.790764 
L 180.400111 93.790764 
L 189.344877 93.790764 
L 198.289644 93.790764 
L 207.23441 93.790764 
L 216.179177 93.790764 
L 225.123944 93.790764 
L 234.06871 93.790764 
L 243.013477 93.790764 
L 251.958244 93.790764 
L 260.90301 93.790764 
" style="fill:none;stroke:#ff0000;stroke-dasharray:11.1,4.8;stroke-dashoffset:0;stroke-width:3;"/>
   </g>
   <g id="patch_3">
    <path d="M 100.791687 222.11 
L 100.791687 32.31 
" style="fill:none;stroke:#000000;stroke-linecap:square;stroke-linejoin:miter;stroke-width:0.8;"/>
   </g>
   <g id="patch_4">
    <path d="M 277.898067 222.11 
L 277.898067 32.31 
" style="fill:none;stroke:#000000;stroke-linecap:square;stroke-linejoin:miter;stroke-width:0.8;"/>
   </g>
   <g id="patch_5">
    <path d="M 100.791687 222.11 
L 277.898067 222.11 
" style="fill:none;stroke:#000000;stroke-linecap:square;stroke-linejoin:miter;stroke-width:0.8;"/>
   </g>
   <g id="patch_6">
    <path d="M 100.791687 32.31 
L 277.898067 32.31 
" style="fill:none;stroke:#000000;stroke-linecap:square;stroke-linejoin:miter;stroke-width:0.8;"/>
   </g>
   <g id="text_15">
    <!-- Free Mg$^{2+}$ ions -->
    <defs>
     <path d="M 8.203125 0 
L 8.203125 71.578125 
L 56.5 71.578125 
L 56.5 63.140625 
L 17.671875 63.140625 
L 17.671875 40.96875 
L 51.265625 40.96875 
L 51.265625 32.515625 
L 17.671875 32.515625 
L 17.671875 0 
z
" id="ArialMT-46"/>
     <path d="M 7.421875 0 
L 7.421875 71.578125 
L 21.6875 71.578125 
L 38.625 20.90625 
Q 40.96875 13.8125 42.046875 10.296875 
Q 43.265625 14.203125 45.84375 21.78125 
L 62.984375 71.578125 
L 75.734375 71.578125 
L 75.734375 0 
L 66.609375 0 
L 66.609375 59.90625 
L 45.796875 0 
L 37.25 0 
L 16.546875 60.9375 
L 16.546875 0 
z
" id="ArialMT-4d"/>
     <path d="M 4.984375 -4.296875 
L 13.53125 -5.5625 
Q 14.0625 -9.515625 16.5 -11.328125 
Q 19.78125 -13.765625 25.4375 -13.765625 
Q 31.546875 -13.765625 34.859375 -11.328125 
Q 38.1875 -8.890625 39.359375 -4.5 
Q 40.046875 -1.8125 39.984375 6.78125 
Q 34.234375 0 25.640625 0 
Q 14.9375 0 9.078125 7.71875 
Q 3.21875 15.4375 3.21875 26.21875 
Q 3.21875 33.640625 5.90625 39.90625 
Q 8.59375 46.1875 13.6875 49.609375 
Q 18.796875 53.03125 25.6875 53.03125 
Q 34.859375 53.03125 40.828125 45.609375 
L 40.828125 51.859375 
L 48.921875 51.859375 
L 48.921875 7.03125 
Q 48.921875 -5.078125 46.453125 -10.125 
Q 44 -15.1875 38.640625 -18.109375 
Q 33.296875 -21.046875 25.484375 -21.046875 
Q 16.21875 -21.046875 10.5 -16.875 
Q 4.78125 -12.703125 4.984375 -4.296875 
z
M 12.25 26.859375 
Q 12.25 16.65625 16.296875 11.96875 
Q 20.359375 7.28125 26.46875 7.28125 
Q 32.515625 7.28125 36.609375 11.9375 
Q 40.71875 16.609375 40.71875 26.5625 
Q 40.71875 36.078125 36.5 40.90625 
Q 32.28125 45.75 26.3125 45.75 
Q 20.453125 45.75 16.34375 40.984375 
Q 12.25 36.234375 12.25 26.859375 
z
" id="ArialMT-67"/>
     <path d="M 19.1875 8.296875 
L 53.609375 8.296875 
L 53.609375 0 
L 7.328125 0 
L 7.328125 8.296875 
Q 12.9375 14.109375 22.625 23.890625 
Q 32.328125 33.6875 34.8125 36.53125 
Q 39.546875 41.84375 41.421875 45.53125 
Q 43.3125 49.21875 43.3125 52.78125 
Q 43.3125 58.59375 39.234375 62.25 
Q 35.15625 65.921875 28.609375 65.921875 
Q 23.96875 65.921875 18.8125 64.3125 
Q 13.671875 62.703125 7.8125 59.421875 
L 7.8125 69.390625 
Q 13.765625 71.78125 18.9375 73 
Q 24.125 74.21875 28.421875 74.21875 
Q 39.75 74.21875 46.484375 68.546875 
Q 53.21875 62.890625 53.21875 53.421875 
Q 53.21875 48.921875 51.53125 44.890625 
Q 49.859375 40.875 45.40625 35.40625 
Q 44.1875 33.984375 37.640625 27.21875 
Q 31.109375 20.453125 19.1875 8.296875 
z
" id="DejaVuSans-32"/>
     <path d="M 46 62.703125 
L 46 35.5 
L 73.1875 35.5 
L 73.1875 27.203125 
L 46 27.203125 
L 46 0 
L 37.796875 0 
L 37.796875 27.203125 
L 10.59375 27.203125 
L 10.59375 35.5 
L 37.796875 35.5 
L 37.796875 62.703125 
z
" id="DejaVuSans-2b"/>
     <path d="M 3.078125 15.484375 
L 11.765625 16.84375 
Q 12.5 11.625 15.84375 8.84375 
Q 19.1875 6.0625 25.203125 6.0625 
Q 31.25 6.0625 34.171875 8.515625 
Q 37.109375 10.984375 37.109375 14.3125 
Q 37.109375 17.28125 34.515625 19 
Q 32.71875 20.171875 25.53125 21.96875 
Q 15.875 24.421875 12.140625 26.203125 
Q 8.40625 27.984375 6.46875 31.125 
Q 4.546875 34.28125 4.546875 38.09375 
Q 4.546875 41.546875 6.125 44.5 
Q 7.71875 47.46875 10.453125 49.421875 
Q 12.5 50.921875 16.03125 51.96875 
Q 19.578125 53.03125 23.640625 53.03125 
Q 29.734375 53.03125 34.34375 51.265625 
Q 38.96875 49.515625 41.15625 46.5 
Q 43.359375 43.5 44.1875 38.484375 
L 35.59375 37.3125 
Q 35.015625 41.3125 32.203125 43.546875 
Q 29.390625 45.796875 24.265625 45.796875 
Q 18.21875 45.796875 15.625 43.796875 
Q 13.03125 41.796875 13.03125 39.109375 
Q 13.03125 37.40625 14.109375 36.03125 
Q 15.1875 34.625 17.484375 33.6875 
Q 18.796875 33.203125 25.25 31.453125 
Q 34.578125 28.953125 38.25 27.359375 
Q 41.9375 25.78125 44.03125 22.75 
Q 46.140625 19.734375 46.140625 15.234375 
Q 46.140625 10.84375 43.578125 6.953125 
Q 41.015625 3.078125 36.171875 0.953125 
Q 31.34375 -1.171875 25.25 -1.171875 
Q 15.140625 -1.171875 9.84375 3.03125 
Q 4.546875 7.234375 3.078125 15.484375 
z
" id="ArialMT-73"/>
    </defs>
    <g transform="translate(113.954877 26.31)scale(0.21 -0.21)">
     <use transform="translate(0 0.765625)" xlink:href="#ArialMT-46"/>
     <use transform="translate(61.083984 0.765625)" xlink:href="#ArialMT-72"/>
     <use transform="translate(94.384766 0.765625)" xlink:href="#ArialMT-65"/>
     <use transform="translate(150 0.765625)" xlink:href="#ArialMT-65"/>
     <use transform="translate(205.615234 0.765625)" xlink:href="#ArialMT-20"/>
     <use transform="translate(233.398438 0.765625)" xlink:href="#ArialMT-4d"/>
     <use transform="translate(316.699219 0.765625)" xlink:href="#ArialMT-67"/>
     <use transform="translate(373.271484 39.046875)scale(0.7)" xlink:href="#DejaVuSans-32"/>
     <use transform="translate(431.445312 39.046875)scale(0.7)" xlink:href="#DejaVuSans-2b"/>
     <use transform="translate(506.469727 0.765625)" xlink:href="#ArialMT-20"/>
     <use transform="translate(534.25293 0.765625)" xlink:href="#ArialMT-69"/>
     <use transform="translate(556.469727 0.765625)" xlink:href="#ArialMT-6f"/>
     <use transform="translate(612.084961 0.765625)" xlink:href="#ArialMT-6e"/>
     <use transform="translate(667.700195 0.765625)" xlink:href="#ArialMT-73"/>
    </g>
   </g>
   <g id="legend_1">
    <g id="patch_7">
     <path d="M 204.603236 147.205938 
L 262.608705 147.205938 
Q 265.608705 147.205938 265.608705 144.205938 
L 265.608705 103.27 
Q 265.608705 100.27 262.608705 100.27 
L 204.603236 100.27 
Q 201.603236 100.27 201.603236 103.27 
L 201.603236 144.205938 
Q 201.603236 147.205938 204.603236 147.205938 
z
" style="fill:#ffffff;opacity:0.8;stroke:#cccccc;stroke-linejoin:miter;"/>
    </g>
    <g id="line2d_15">
     <path d="M 207.603236 111.756719 
L 237.603236 111.756719 
" style="fill:none;stroke:#000000;stroke-linecap:square;stroke-width:3;"/>
    </g>
    <g id="line2d_16"/>
    <g id="text_16">
     <!-- S -->
     <defs>
      <path d="M 4.5 23 
L 13.421875 23.78125 
Q 14.0625 18.40625 16.375 14.96875 
Q 18.703125 11.53125 23.578125 9.40625 
Q 28.46875 7.28125 34.578125 7.28125 
Q 39.984375 7.28125 44.140625 8.890625 
Q 48.296875 10.5 50.3125 13.296875 
Q 52.34375 16.109375 52.34375 19.4375 
Q 52.34375 22.796875 50.390625 25.3125 
Q 48.4375 27.828125 43.953125 29.546875 
Q 41.0625 30.671875 31.203125 33.03125 
Q 21.34375 35.40625 17.390625 37.5 
Q 12.25 40.1875 9.734375 44.15625 
Q 7.234375 48.140625 7.234375 53.078125 
Q 7.234375 58.5 10.296875 63.203125 
Q 13.375 67.921875 19.28125 70.359375 
Q 25.203125 72.796875 32.421875 72.796875 
Q 40.375 72.796875 46.453125 70.234375 
Q 52.546875 67.671875 55.8125 62.6875 
Q 59.078125 57.71875 59.328125 51.421875 
L 50.25 50.734375 
Q 49.515625 57.515625 45.28125 60.984375 
Q 41.0625 64.453125 32.8125 64.453125 
Q 24.21875 64.453125 20.28125 61.296875 
Q 16.359375 58.15625 16.359375 53.71875 
Q 16.359375 49.859375 19.140625 47.359375 
Q 21.875 44.875 33.421875 42.265625 
Q 44.96875 39.65625 49.265625 37.703125 
Q 55.515625 34.8125 58.484375 30.390625 
Q 61.46875 25.984375 61.46875 20.21875 
Q 61.46875 14.5 58.203125 9.4375 
Q 54.9375 4.390625 48.796875 1.578125 
Q 42.671875 -1.21875 35.015625 -1.21875 
Q 25.296875 -1.21875 18.71875 1.609375 
Q 12.15625 4.4375 8.421875 10.125 
Q 4.6875 15.828125 4.5 23 
z
" id="ArialMT-53"/>
     </defs>
     <g transform="translate(249.603236 117.006719)scale(0.15 -0.15)">
      <use xlink:href="#ArialMT-53"/>
     </g>
    </g>
    <g id="line2d_17">
     <path d="M 207.603236 132.974688 
L 237.603236 132.974688 
" style="fill:none;stroke:#ff0000;stroke-dasharray:11.1,4.8;stroke-dashoffset:0;stroke-width:3;"/>
    </g>
    <g id="line2d_18"/>
    <g id="text_17">
     <!-- E -->
     <defs>
      <path d="M 7.90625 0 
L 7.90625 71.578125 
L 59.671875 71.578125 
L 59.671875 63.140625 
L 17.390625 63.140625 
L 17.390625 41.21875 
L 56.984375 41.21875 
L 56.984375 32.8125 
L 17.390625 32.8125 
L 17.390625 8.453125 
L 61.328125 8.453125 
L 61.328125 0 
z
" id="ArialMT-45"/>
     </defs>
     <g transform="translate(249.603236 138.224688)scale(0.15 -0.15)">
      <use xlink:href="#ArialMT-45"/>
     </g>
    </g>
   </g>
  </g>
  <g id="axes_2">
   <g id="patch_8">
    <path d="M 384.948067 222.11 
L 562.054446 222.11 
L 562.054446 32.31 
L 384.948067 32.31 
z
" style="fill:#ffffff;"/>
   </g>
   <g id="patch_9">
    <path clip-path="url(#peb6775089b)" d="M 392.998357 222.11 
L 406.195553 222.11 
L 406.195553 218.142399 
L 392.998357 218.142399 
z
" style="fill:#00ff00;stroke:#000000;stroke-linejoin:miter;"/>
   </g>
   <g id="patch_10">
    <path clip-path="url(#peb6775089b)" d="M 458.98434 222.11 
L 472.181537 222.11 
L 472.181537 161.849223 
L 458.98434 161.849223 
z
" style="fill:#00ff00;stroke:#000000;stroke-linejoin:miter;"/>
   </g>
   <g id="patch_11">
    <path clip-path="url(#peb6775089b)" d="M 524.970323 222.11 
L 538.16752 222.11 
L 538.16752 41.348095 
L 524.970323 41.348095 
z
" style="fill:#00ff00;stroke:#000000;stroke-linejoin:miter;"/>
   </g>
   <g id="patch_12">
    <path clip-path="url(#peb6775089b)" d="M 408.834993 222.11 
L 422.032189 222.11 
L 422.032189 155.823146 
L 408.834993 155.823146 
z
" style="fill:url(#h01fdb858bd);stroke:#000000;stroke-linejoin:miter;"/>
   </g>
   <g id="patch_13">
    <path clip-path="url(#peb6775089b)" d="M 474.820976 222.11 
L 488.018173 222.11 
L 488.018173 161.849223 
L 474.820976 161.849223 
z
" style="fill:url(#h01fdb858bd);stroke:#000000;stroke-linejoin:miter;"/>
   </g>
   <g id="patch_14">
    <path clip-path="url(#peb6775089b)" d="M 540.806959 222.11 
L 554.004156 222.11 
L 554.004156 71.458058 
L 540.806959 71.458058 
z
" style="fill:url(#h01fdb858bd);stroke:#000000;stroke-linejoin:miter;"/>
   </g>
   <g id="matplotlib.axis_3">
    <g id="xtick_5">
     <g id="line2d_19">
      <g>
       <use style="stroke:#000000;stroke-width:0.8;" x="407.515273" xlink:href="#m79e1856119" y="222.11"/>
      </g>
     </g>
     <g id="text_18">
      <!-- 0.08 -->
      <defs>
       <path d="M 17.671875 38.8125 
Q 12.203125 40.828125 9.5625 44.53125 
Q 6.9375 48.25 6.9375 53.421875 
Q 6.9375 61.234375 12.546875 66.546875 
Q 18.171875 71.875 27.484375 71.875 
Q 36.859375 71.875 42.578125 66.421875 
Q 48.296875 60.984375 48.296875 53.171875 
Q 48.296875 48.1875 45.671875 44.5 
Q 43.0625 40.828125 37.75 38.8125 
Q 44.34375 36.671875 47.78125 31.875 
Q 51.21875 27.09375 51.21875 20.453125 
Q 51.21875 11.28125 44.71875 5.03125 
Q 38.234375 -1.21875 27.640625 -1.21875 
Q 17.046875 -1.21875 10.546875 5.046875 
Q 4.046875 11.328125 4.046875 20.703125 
Q 4.046875 27.6875 7.59375 32.390625 
Q 11.140625 37.109375 17.671875 38.8125 
z
M 15.921875 53.71875 
Q 15.921875 48.640625 19.1875 45.40625 
Q 22.46875 42.1875 27.6875 42.1875 
Q 32.765625 42.1875 36.015625 45.375 
Q 39.265625 48.578125 39.265625 53.21875 
Q 39.265625 58.0625 35.90625 61.359375 
Q 32.5625 64.65625 27.59375 64.65625 
Q 22.5625 64.65625 19.234375 61.421875 
Q 15.921875 58.203125 15.921875 53.71875 
z
M 13.09375 20.65625 
Q 13.09375 16.890625 14.875 13.375 
Q 16.65625 9.859375 20.171875 7.921875 
Q 23.6875 6 27.734375 6 
Q 34.03125 6 38.125 10.046875 
Q 42.234375 14.109375 42.234375 20.359375 
Q 42.234375 26.703125 38.015625 30.859375 
Q 33.796875 35.015625 27.4375 35.015625 
Q 21.234375 35.015625 17.15625 30.90625 
Q 13.09375 26.8125 13.09375 20.65625 
z
" id="ArialMT-38"/>
      </defs>
      <g transform="translate(387.081289 244.141406)scale(0.21 -0.21)">
       <use xlink:href="#ArialMT-30"/>
       <use x="55.615234" xlink:href="#ArialMT-2e"/>
       <use x="83.398438" xlink:href="#ArialMT-30"/>
       <use x="139.013672" xlink:href="#ArialMT-38"/>
      </g>
     </g>
    </g>
    <g id="xtick_6">
     <g id="line2d_20">
      <g>
       <use style="stroke:#000000;stroke-width:0.8;" x="473.501256" xlink:href="#m79e1856119" y="222.11"/>
      </g>
     </g>
     <g id="text_19">
      <!-- 0.8 -->
      <g transform="translate(458.906256 244.141406)scale(0.21 -0.21)">
       <use xlink:href="#ArialMT-30"/>
       <use x="55.615234" xlink:href="#ArialMT-2e"/>
       <use x="83.398438" xlink:href="#ArialMT-38"/>
      </g>
     </g>
    </g>
    <g id="xtick_7">
     <g id="line2d_21">
      <g>
       <use style="stroke:#000000;stroke-width:0.8;" x="539.48724" xlink:href="#m79e1856119" y="222.11"/>
      </g>
     </g>
     <g id="text_20">
      <!-- 8 -->
      <g transform="translate(533.648255 244.141406)scale(0.21 -0.21)">
       <use xlink:href="#ArialMT-38"/>
      </g>
     </g>
    </g>
    <g id="text_21">
     <!-- Mg conc. (ng/ml) -->
     <defs>
      <path d="M 0 -1.21875 
L 20.75 72.796875 
L 27.78125 72.796875 
L 7.078125 -1.21875 
z
" id="ArialMT-2f"/>
     </defs>
     <g transform="translate(395.320553 267.6025)scale(0.21 -0.21)">
      <use xlink:href="#ArialMT-4d"/>
      <use x="83.300781" xlink:href="#ArialMT-67"/>
      <use x="138.916016" xlink:href="#ArialMT-20"/>
      <use x="166.699219" xlink:href="#ArialMT-63"/>
      <use x="216.699219" xlink:href="#ArialMT-6f"/>
      <use x="272.314453" xlink:href="#ArialMT-6e"/>
      <use x="327.929688" xlink:href="#ArialMT-63"/>
      <use x="377.929688" xlink:href="#ArialMT-2e"/>
      <use x="405.712891" xlink:href="#ArialMT-20"/>
      <use x="433.496094" xlink:href="#ArialMT-28"/>
      <use x="466.796875" xlink:href="#ArialMT-6e"/>
      <use x="522.412109" xlink:href="#ArialMT-67"/>
      <use x="578.027344" xlink:href="#ArialMT-2f"/>
      <use x="605.810547" xlink:href="#ArialMT-6d"/>
      <use x="689.111328" xlink:href="#ArialMT-6c"/>
      <use x="711.328125" xlink:href="#ArialMT-29"/>
     </g>
    </g>
   </g>
   <g id="matplotlib.axis_4">
    <g id="ytick_9">
     <g id="line2d_22">
      <g>
       <use style="stroke:#000000;stroke-width:0.8;" x="384.948067" xlink:href="#m5610d361e2" y="222.11"/>
      </g>
     </g>
     <g id="text_22">
      <!-- 0.0 -->
      <g transform="translate(348.758067 229.625703)scale(0.21 -0.21)">
       <use xlink:href="#ArialMT-30"/>
       <use x="55.615234" xlink:href="#ArialMT-2e"/>
       <use x="83.398438" xlink:href="#ArialMT-30"/>
      </g>
     </g>
    </g>
    <g id="ytick_10">
     <g id="line2d_23">
      <g>
       <use style="stroke:#000000;stroke-width:0.8;" x="384.948067" xlink:href="#m5610d361e2" y="191.979612"/>
      </g>
     </g>
     <g id="text_23">
      <!-- 0.5 -->
      <g transform="translate(348.758067 199.495315)scale(0.21 -0.21)">
       <use xlink:href="#ArialMT-30"/>
       <use x="55.615234" xlink:href="#ArialMT-2e"/>
       <use x="83.398438" xlink:href="#ArialMT-35"/>
      </g>
     </g>
    </g>
    <g id="ytick_11">
     <g id="line2d_24">
      <g>
       <use style="stroke:#000000;stroke-width:0.8;" x="384.948067" xlink:href="#m5610d361e2" y="161.849223"/>
      </g>
     </g>
     <g id="text_24">
      <!-- 1.0 -->
      <g transform="translate(348.758067 169.364926)scale(0.21 -0.21)">
       <use xlink:href="#ArialMT-31"/>
       <use x="55.615234" xlink:href="#ArialMT-2e"/>
       <use x="83.398438" xlink:href="#ArialMT-30"/>
      </g>
     </g>
    </g>
    <g id="ytick_12">
     <g id="line2d_25">
      <g>
       <use style="stroke:#000000;stroke-width:0.8;" x="384.948067" xlink:href="#m5610d361e2" y="131.718835"/>
      </g>
     </g>
     <g id="text_25">
      <!-- 1.5 -->
      <g transform="translate(348.758067 139.234538)scale(0.21 -0.21)">
       <use xlink:href="#ArialMT-31"/>
       <use x="55.615234" xlink:href="#ArialMT-2e"/>
       <use x="83.398438" xlink:href="#ArialMT-35"/>
      </g>
     </g>
    </g>
    <g id="ytick_13">
     <g id="line2d_26">
      <g>
       <use style="stroke:#000000;stroke-width:0.8;" x="384.948067" xlink:href="#m5610d361e2" y="101.588446"/>
      </g>
     </g>
     <g id="text_26">
      <!-- 2.0 -->
      <g transform="translate(348.758067 109.10415)scale(0.21 -0.21)">
       <use xlink:href="#ArialMT-32"/>
       <use x="55.615234" xlink:href="#ArialMT-2e"/>
       <use x="83.398438" xlink:href="#ArialMT-30"/>
      </g>
     </g>
    </g>
    <g id="ytick_14">
     <g id="line2d_27">
      <g>
       <use style="stroke:#000000;stroke-width:0.8;" x="384.948067" xlink:href="#m5610d361e2" y="71.458058"/>
      </g>
     </g>
     <g id="text_27">
      <!-- 2.5 -->
      <g transform="translate(348.758067 78.973761)scale(0.21 -0.21)">
       <use xlink:href="#ArialMT-32"/>
       <use x="55.615234" xlink:href="#ArialMT-2e"/>
       <use x="83.398438" xlink:href="#ArialMT-35"/>
      </g>
     </g>
    </g>
    <g id="ytick_15">
     <g id="line2d_28">
      <g>
       <use style="stroke:#000000;stroke-width:0.8;" x="384.948067" xlink:href="#m5610d361e2" y="41.32767"/>
      </g>
     </g>
     <g id="text_28">
      <!-- 3.0 -->
      <g transform="translate(348.758067 48.843373)scale(0.21 -0.21)">
       <use xlink:href="#ArialMT-33"/>
       <use x="55.615234" xlink:href="#ArialMT-2e"/>
       <use x="83.398438" xlink:href="#ArialMT-30"/>
      </g>
     </g>
    </g>
    <g id="text_29">
     <!-- Relative intensity  -->
     <defs>
      <path d="M 6.203125 -19.96875 
L 5.21875 -11.71875 
Q 8.109375 -12.5 10.25 -12.5 
Q 13.1875 -12.5 14.9375 -11.515625 
Q 16.703125 -10.546875 17.828125 -8.796875 
Q 18.65625 -7.46875 20.515625 -2.25 
Q 20.75 -1.515625 21.296875 -0.09375 
L 1.609375 51.859375 
L 11.078125 51.859375 
L 21.875 21.828125 
Q 23.96875 16.109375 25.640625 9.8125 
Q 27.15625 15.875 29.25 21.625 
L 40.328125 51.859375 
L 49.125 51.859375 
L 29.390625 -0.875 
Q 26.21875 -9.421875 24.46875 -12.640625 
Q 22.125 -17 19.09375 -19.015625 
Q 16.0625 -21.046875 11.859375 -21.046875 
Q 9.328125 -21.046875 6.203125 -19.96875 
z
" id="ArialMT-79"/>
     </defs>
     <g transform="translate(317.573567 209.493906)rotate(-90)scale(0.21 -0.21)">
      <use xlink:href="#ArialMT-52"/>
      <use x="72.216797" xlink:href="#ArialMT-65"/>
      <use x="127.832031" xlink:href="#ArialMT-6c"/>
      <use x="150.048828" xlink:href="#ArialMT-61"/>
      <use x="205.664062" xlink:href="#ArialMT-74"/>
      <use x="233.447266" xlink:href="#ArialMT-69"/>
      <use x="255.664062" xlink:href="#ArialMT-76"/>
      <use x="305.664062" xlink:href="#ArialMT-65"/>
      <use x="361.279297" xlink:href="#ArialMT-20"/>
      <use x="389.0625" xlink:href="#ArialMT-69"/>
      <use x="411.279297" xlink:href="#ArialMT-6e"/>
      <use x="466.894531" xlink:href="#ArialMT-74"/>
      <use x="494.677734" xlink:href="#ArialMT-65"/>
      <use x="550.292969" xlink:href="#ArialMT-6e"/>
      <use x="605.908203" xlink:href="#ArialMT-73"/>
      <use x="655.908203" xlink:href="#ArialMT-69"/>
      <use x="678.125" xlink:href="#ArialMT-74"/>
      <use x="705.908203" xlink:href="#ArialMT-79"/>
      <use x="755.908203" xlink:href="#ArialMT-20"/>
     </g>
     <!--  (To control) -->
     <g transform="translate(340.338223 183.783672)rotate(-90)scale(0.21 -0.21)">
      <use xlink:href="#ArialMT-20"/>
      <use x="27.783203" xlink:href="#ArialMT-28"/>
      <use x="61.083984" xlink:href="#ArialMT-54"/>
      <use x="121.996094" xlink:href="#ArialMT-6f"/>
      <use x="177.611328" xlink:href="#ArialMT-20"/>
      <use x="205.394531" xlink:href="#ArialMT-63"/>
      <use x="255.394531" xlink:href="#ArialMT-6f"/>
      <use x="311.009766" xlink:href="#ArialMT-6e"/>
      <use x="366.625" xlink:href="#ArialMT-74"/>
      <use x="394.408203" xlink:href="#ArialMT-72"/>
      <use x="427.708984" xlink:href="#ArialMT-6f"/>
      <use x="483.324219" xlink:href="#ArialMT-6c"/>
      <use x="505.541016" xlink:href="#ArialMT-29"/>
     </g>
    </g>
   </g>
   <g id="LineCollection_1">
    <path clip-path="url(#peb6775089b)" d="M 399.596955 218.142399 
L 399.596955 218.142399 
" style="fill:none;stroke:#000000;stroke-width:1.5;"/>
    <path clip-path="url(#peb6775089b)" d="M 465.582938 161.849223 
L 465.582938 161.849223 
" style="fill:none;stroke:#000000;stroke-width:1.5;"/>
    <path clip-path="url(#peb6775089b)" d="M 531.568922 41.348095 
L 531.568922 41.348095 
" style="fill:none;stroke:#000000;stroke-width:1.5;"/>
   </g>
   <g id="LineCollection_2">
    <path clip-path="url(#peb6775089b)" d="M 415.433591 155.823146 
L 415.433591 155.823146 
" style="fill:none;stroke:#000000;stroke-width:1.5;"/>
    <path clip-path="url(#peb6775089b)" d="M 481.419574 161.849223 
L 481.419574 161.849223 
" style="fill:none;stroke:#000000;stroke-width:1.5;"/>
    <path clip-path="url(#peb6775089b)" d="M 547.405558 71.458058 
L 547.405558 71.458058 
" style="fill:none;stroke:#000000;stroke-width:1.5;"/>
   </g>
   <g id="line2d_29">
    <defs>
     <path d="M 5 0 
L -5 -0 
" id="m8ebefd2168" style="stroke:#000000;"/>
    </defs>
    <g clip-path="url(#peb6775089b)">
     <use style="stroke:#000000;" x="399.596955" xlink:href="#m8ebefd2168" y="218.142399"/>
     <use style="stroke:#000000;" x="465.582938" xlink:href="#m8ebefd2168" y="161.849223"/>
     <use style="stroke:#000000;" x="531.568922" xlink:href="#m8ebefd2168" y="41.348095"/>
    </g>
   </g>
   <g id="line2d_30">
    <g clip-path="url(#peb6775089b)">
     <use style="stroke:#000000;" x="399.596955" xlink:href="#m8ebefd2168" y="218.142399"/>
     <use style="stroke:#000000;" x="465.582938" xlink:href="#m8ebefd2168" y="161.849223"/>
     <use style="stroke:#000000;" x="531.568922" xlink:href="#m8ebefd2168" y="41.348095"/>
    </g>
   </g>
   <g id="line2d_31">
    <g clip-path="url(#peb6775089b)">
     <use style="stroke:#000000;" x="415.433591" xlink:href="#m8ebefd2168" y="155.823146"/>
     <use style="stroke:#000000;" x="481.419574" xlink:href="#m8ebefd2168" y="161.849223"/>
     <use style="stroke:#000000;" x="547.405558" xlink:href="#m8ebefd2168" y="71.458058"/>
    </g>
   </g>
   <g id="line2d_32">
    <g clip-path="url(#peb6775089b)">
     <use style="stroke:#000000;" x="415.433591" xlink:href="#m8ebefd2168" y="155.823146"/>
     <use style="stroke:#000000;" x="481.419574" xlink:href="#m8ebefd2168" y="161.849223"/>
     <use style="stroke:#000000;" x="547.405558" xlink:href="#m8ebefd2168" y="71.458058"/>
    </g>
   </g>
   <g id="patch_15">
    <path d="M 384.948067 222.11 
L 384.948067 32.31 
" style="fill:none;stroke:#000000;stroke-linecap:square;stroke-linejoin:miter;stroke-width:0.8;"/>
   </g>
   <g id="patch_16">
    <path d="M 562.054446 222.11 
L 562.054446 32.31 
" style="fill:none;stroke:#000000;stroke-linecap:square;stroke-linejoin:miter;stroke-width:0.8;"/>
   </g>
   <g id="patch_17">
    <path d="M 384.948067 222.11 
L 562.054446 222.11 
" style="fill:none;stroke:#000000;stroke-linecap:square;stroke-linejoin:miter;stroke-width:0.8;"/>
   </g>
   <g id="patch_18">
    <path d="M 384.948067 32.31 
L 562.054446 32.31 
" style="fill:none;stroke:#000000;stroke-linecap:square;stroke-linejoin:miter;stroke-width:0.8;"/>
   </g>
   <g id="text_30">
    <!-- Nuclear TRPM -->
    <defs>
     <path d="M 7.625 0 
L 7.625 71.578125 
L 17.328125 71.578125 
L 54.9375 15.375 
L 54.9375 71.578125 
L 64.015625 71.578125 
L 64.015625 0 
L 54.296875 0 
L 16.703125 56.25 
L 16.703125 0 
z
" id="ArialMT-4e"/>
     <path d="M 40.578125 0 
L 40.578125 7.625 
Q 34.515625 -1.171875 24.125 -1.171875 
Q 19.53125 -1.171875 15.546875 0.578125 
Q 11.578125 2.34375 9.640625 5 
Q 7.71875 7.671875 6.9375 11.53125 
Q 6.390625 14.109375 6.390625 19.734375 
L 6.390625 51.859375 
L 15.1875 51.859375 
L 15.1875 23.09375 
Q 15.1875 16.21875 15.71875 13.8125 
Q 16.546875 10.359375 19.234375 8.375 
Q 21.921875 6.390625 25.875 6.390625 
Q 29.828125 6.390625 33.296875 8.421875 
Q 36.765625 10.453125 38.203125 13.9375 
Q 39.65625 17.4375 39.65625 24.078125 
L 39.65625 51.859375 
L 48.4375 51.859375 
L 48.4375 0 
z
" id="ArialMT-75"/>
     <path d="M 7.71875 0 
L 7.71875 71.578125 
L 34.71875 71.578125 
Q 41.84375 71.578125 45.609375 70.90625 
Q 50.875 70.015625 54.4375 67.546875 
Q 58.015625 65.09375 60.1875 60.640625 
Q 62.359375 56.203125 62.359375 50.875 
Q 62.359375 41.75 56.546875 35.421875 
Q 50.734375 29.109375 35.546875 29.109375 
L 17.1875 29.109375 
L 17.1875 0 
z
M 17.1875 37.546875 
L 35.6875 37.546875 
Q 44.875 37.546875 48.734375 40.96875 
Q 52.59375 44.390625 52.59375 50.59375 
Q 52.59375 55.078125 50.3125 58.265625 
Q 48.046875 61.46875 44.34375 62.5 
Q 41.9375 63.140625 35.5 63.140625 
L 17.1875 63.140625 
z
" id="ArialMT-50"/>
    </defs>
    <g transform="translate(404.660631 26.31)scale(0.21 -0.21)">
     <use xlink:href="#ArialMT-4e"/>
     <use x="72.216797" xlink:href="#ArialMT-75"/>
     <use x="127.832031" xlink:href="#ArialMT-63"/>
     <use x="177.832031" xlink:href="#ArialMT-6c"/>
     <use x="200.048828" xlink:href="#ArialMT-65"/>
     <use x="255.664062" xlink:href="#ArialMT-61"/>
     <use x="311.279297" xlink:href="#ArialMT-72"/>
     <use x="344.580078" xlink:href="#ArialMT-20"/>
     <use x="372.347656" xlink:href="#ArialMT-54"/>
     <use x="433.431641" xlink:href="#ArialMT-52"/>
     <use x="505.648438" xlink:href="#ArialMT-50"/>
     <use x="572.347656" xlink:href="#ArialMT-4d"/>
    </g>
   </g>
   <g id="legend_2">
    <g id="patch_19">
     <path d="M 417.917064 90.265938 
L 475.922532 90.265938 
Q 478.922532 90.265938 478.922532 87.265938 
L 478.922532 46.33 
Q 478.922532 43.33 475.922532 43.33 
L 417.917064 43.33 
Q 414.917064 43.33 414.917064 46.33 
L 414.917064 87.265938 
Q 414.917064 90.265938 417.917064 90.265938 
z
" style="fill:#ffffff;opacity:0.8;stroke:#cccccc;stroke-linejoin:miter;"/>
    </g>
    <g id="patch_20">
     <path d="M 420.917064 60.066719 
L 450.917064 60.066719 
L 450.917064 49.566719 
L 420.917064 49.566719 
z
" style="fill:#00ff00;stroke:#000000;stroke-linejoin:miter;"/>
    </g>
    <g id="text_31">
     <!-- S -->
     <g transform="translate(462.917064 60.066719)scale(0.15 -0.15)">
      <use xlink:href="#ArialMT-53"/>
     </g>
    </g>
    <g id="patch_21">
     <path d="M 420.917064 81.284688 
L 450.917064 81.284688 
L 450.917064 70.784688 
L 420.917064 70.784688 
z
" style="fill:url(#h01fdb858bd);stroke:#000000;stroke-linejoin:miter;"/>
    </g>
    <g id="text_32">
     <!-- E -->
     <g transform="translate(462.917064 81.284688)scale(0.15 -0.15)">
      <use xlink:href="#ArialMT-45"/>
     </g>
    </g>
   </g>
  </g>
  <g id="axes_3">
   <g id="patch_22">
    <path d="M 669.104446 222.11 
L 846.210825 222.11 
L 846.210825 32.31 
L 669.104446 32.31 
z
" style="fill:#ffffff;"/>
   </g>
   <g id="patch_23">
    <path clip-path="url(#pf6783080b1)" d="M 677.154736 222.11 
L 690.351933 222.11 
L 690.351933 196.916957 
L 677.154736 196.916957 
z
" style="fill:#00ff00;stroke:#000000;stroke-linejoin:miter;"/>
   </g>
   <g id="patch_24">
    <path clip-path="url(#pf6783080b1)" d="M 743.140719 222.11 
L 756.337916 222.11 
L 756.337916 119.55942 
L 743.140719 119.55942 
z
" style="fill:#00ff00;stroke:#000000;stroke-linejoin:miter;"/>
   </g>
   <g id="patch_25">
    <path clip-path="url(#pf6783080b1)" d="M 809.126703 222.11 
L 822.323899 222.11 
L 822.323899 41.348095 
L 809.126703 41.348095 
z
" style="fill:#00ff00;stroke:#000000;stroke-linejoin:miter;"/>
   </g>
   <g id="patch_26">
    <path clip-path="url(#pf6783080b1)" d="M 692.991372 222.11 
L 706.188569 222.11 
L 706.188569 134.942007 
L 692.991372 134.942007 
z
" style="fill:url(#h01fdb858bd);stroke:#000000;stroke-linejoin:miter;"/>
   </g>
   <g id="patch_27">
    <path clip-path="url(#pf6783080b1)" d="M 758.977355 222.11 
L 772.174552 222.11 
L 772.174552 119.55942 
L 758.977355 119.55942 
z
" style="fill:url(#h01fdb858bd);stroke:#000000;stroke-linejoin:miter;"/>
   </g>
   <g id="patch_28">
    <path clip-path="url(#pf6783080b1)" d="M 824.963339 222.11 
L 838.160535 222.11 
L 838.160535 58.029071 
L 824.963339 58.029071 
z
" style="fill:url(#h01fdb858bd);stroke:#000000;stroke-linejoin:miter;"/>
   </g>
   <g id="matplotlib.axis_5">
    <g id="xtick_8">
     <g id="line2d_33">
      <g>
       <use style="stroke:#000000;stroke-width:0.8;" x="691.671652" xlink:href="#m79e1856119" y="222.11"/>
      </g>
     </g>
     <g id="text_33">
      <!-- 0.08 -->
      <g transform="translate(671.237668 244.141406)scale(0.21 -0.21)">
       <use xlink:href="#ArialMT-30"/>
       <use x="55.615234" xlink:href="#ArialMT-2e"/>
       <use x="83.398438" xlink:href="#ArialMT-30"/>
       <use x="139.013672" xlink:href="#ArialMT-38"/>
      </g>
     </g>
    </g>
    <g id="xtick_9">
     <g id="line2d_34">
      <g>
       <use style="stroke:#000000;stroke-width:0.8;" x="757.657636" xlink:href="#m79e1856119" y="222.11"/>
      </g>
     </g>
     <g id="text_34">
      <!-- 0.8 -->
      <g transform="translate(743.062636 244.141406)scale(0.21 -0.21)">
       <use xlink:href="#ArialMT-30"/>
       <use x="55.615234" xlink:href="#ArialMT-2e"/>
       <use x="83.398438" xlink:href="#ArialMT-38"/>
      </g>
     </g>
    </g>
    <g id="xtick_10">
     <g id="line2d_35">
      <g>
       <use style="stroke:#000000;stroke-width:0.8;" x="823.643619" xlink:href="#m79e1856119" y="222.11"/>
      </g>
     </g>
     <g id="text_35">
      <!-- 8 -->
      <g transform="translate(817.804635 244.141406)scale(0.21 -0.21)">
       <use xlink:href="#ArialMT-38"/>
      </g>
     </g>
    </g>
    <g id="text_36">
     <!-- Mg conc. (ng/ml) -->
     <g transform="translate(679.476933 267.6025)scale(0.21 -0.21)">
      <use xlink:href="#ArialMT-4d"/>
      <use x="83.300781" xlink:href="#ArialMT-67"/>
      <use x="138.916016" xlink:href="#ArialMT-20"/>
      <use x="166.699219" xlink:href="#ArialMT-63"/>
      <use x="216.699219" xlink:href="#ArialMT-6f"/>
      <use x="272.314453" xlink:href="#ArialMT-6e"/>
      <use x="327.929688" xlink:href="#ArialMT-63"/>
      <use x="377.929688" xlink:href="#ArialMT-2e"/>
      <use x="405.712891" xlink:href="#ArialMT-20"/>
      <use x="433.496094" xlink:href="#ArialMT-28"/>
      <use x="466.796875" xlink:href="#ArialMT-6e"/>
      <use x="522.412109" xlink:href="#ArialMT-67"/>
      <use x="578.027344" xlink:href="#ArialMT-2f"/>
      <use x="605.810547" xlink:href="#ArialMT-6d"/>
      <use x="689.111328" xlink:href="#ArialMT-6c"/>
      <use x="711.328125" xlink:href="#ArialMT-29"/>
     </g>
    </g>
   </g>
   <g id="matplotlib.axis_6">
    <g id="ytick_16">
     <g id="line2d_36">
      <g>
       <use style="stroke:#000000;stroke-width:0.8;" x="669.104446" xlink:href="#m5610d361e2" y="222.11"/>
      </g>
     </g>
     <g id="text_37">
      <!-- 0.00 -->
      <g transform="translate(621.236477 229.625703)scale(0.21 -0.21)">
       <use xlink:href="#ArialMT-30"/>
       <use x="55.615234" xlink:href="#ArialMT-2e"/>
       <use x="83.398438" xlink:href="#ArialMT-30"/>
       <use x="139.013672" xlink:href="#ArialMT-30"/>
      </g>
     </g>
    </g>
    <g id="ytick_17">
     <g id="line2d_37">
      <g>
       <use style="stroke:#000000;stroke-width:0.8;" x="669.104446" xlink:href="#m5610d361e2" y="196.472355"/>
      </g>
     </g>
     <g id="text_38">
      <!-- 0.25 -->
      <g transform="translate(621.236477 203.988058)scale(0.21 -0.21)">
       <use xlink:href="#ArialMT-30"/>
       <use x="55.615234" xlink:href="#ArialMT-2e"/>
       <use x="83.398438" xlink:href="#ArialMT-32"/>
       <use x="139.013672" xlink:href="#ArialMT-35"/>
      </g>
     </g>
    </g>
    <g id="ytick_18">
     <g id="line2d_38">
      <g>
       <use style="stroke:#000000;stroke-width:0.8;" x="669.104446" xlink:href="#m5610d361e2" y="170.83471"/>
      </g>
     </g>
     <g id="text_39">
      <!-- 0.50 -->
      <g transform="translate(621.236477 178.350413)scale(0.21 -0.21)">
       <use xlink:href="#ArialMT-30"/>
       <use x="55.615234" xlink:href="#ArialMT-2e"/>
       <use x="83.398438" xlink:href="#ArialMT-35"/>
       <use x="139.013672" xlink:href="#ArialMT-30"/>
      </g>
     </g>
    </g>
    <g id="ytick_19">
     <g id="line2d_39">
      <g>
       <use style="stroke:#000000;stroke-width:0.8;" x="669.104446" xlink:href="#m5610d361e2" y="145.197065"/>
      </g>
     </g>
     <g id="text_40">
      <!-- 0.75 -->
      <defs>
       <path d="M 4.734375 62.203125 
L 4.734375 70.65625 
L 51.078125 70.65625 
L 51.078125 63.8125 
Q 44.234375 56.546875 37.515625 44.484375 
Q 30.8125 32.421875 27.15625 19.671875 
Q 24.515625 10.6875 23.78125 0 
L 14.75 0 
Q 14.890625 8.453125 18.0625 20.40625 
Q 21.234375 32.375 27.171875 43.484375 
Q 33.109375 54.59375 39.796875 62.203125 
z
" id="ArialMT-37"/>
      </defs>
      <g transform="translate(621.236477 152.712768)scale(0.21 -0.21)">
       <use xlink:href="#ArialMT-30"/>
       <use x="55.615234" xlink:href="#ArialMT-2e"/>
       <use x="83.398438" xlink:href="#ArialMT-37"/>
       <use x="139.013672" xlink:href="#ArialMT-35"/>
      </g>
     </g>
    </g>
    <g id="ytick_20">
     <g id="line2d_40">
      <g>
       <use style="stroke:#000000;stroke-width:0.8;" x="669.104446" xlink:href="#m5610d361e2" y="119.55942"/>
      </g>
     </g>
     <g id="text_41">
      <!-- 1.00 -->
      <g transform="translate(621.236477 127.075123)scale(0.21 -0.21)">
       <use xlink:href="#ArialMT-31"/>
       <use x="55.615234" xlink:href="#ArialMT-2e"/>
       <use x="83.398438" xlink:href="#ArialMT-30"/>
       <use x="139.013672" xlink:href="#ArialMT-30"/>
      </g>
     </g>
    </g>
    <g id="ytick_21">
     <g id="line2d_41">
      <g>
       <use style="stroke:#000000;stroke-width:0.8;" x="669.104446" xlink:href="#m5610d361e2" y="93.921775"/>
      </g>
     </g>
     <g id="text_42">
      <!-- 1.25 -->
      <g transform="translate(621.236477 101.437478)scale(0.21 -0.21)">
       <use xlink:href="#ArialMT-31"/>
       <use x="55.615234" xlink:href="#ArialMT-2e"/>
       <use x="83.398438" xlink:href="#ArialMT-32"/>
       <use x="139.013672" xlink:href="#ArialMT-35"/>
      </g>
     </g>
    </g>
    <g id="ytick_22">
     <g id="line2d_42">
      <g>
       <use style="stroke:#000000;stroke-width:0.8;" x="669.104446" xlink:href="#m5610d361e2" y="68.28413"/>
      </g>
     </g>
     <g id="text_43">
      <!-- 1.50 -->
      <g transform="translate(621.236477 75.799833)scale(0.21 -0.21)">
       <use xlink:href="#ArialMT-31"/>
       <use x="55.615234" xlink:href="#ArialMT-2e"/>
       <use x="83.398438" xlink:href="#ArialMT-35"/>
       <use x="139.013672" xlink:href="#ArialMT-30"/>
      </g>
     </g>
    </g>
    <g id="ytick_23">
     <g id="line2d_43">
      <g>
       <use style="stroke:#000000;stroke-width:0.8;" x="669.104446" xlink:href="#m5610d361e2" y="42.646484"/>
      </g>
     </g>
     <g id="text_44">
      <!-- 1.75 -->
      <g transform="translate(621.236477 50.162188)scale(0.21 -0.21)">
       <use xlink:href="#ArialMT-31"/>
       <use x="55.615234" xlink:href="#ArialMT-2e"/>
       <use x="83.398438" xlink:href="#ArialMT-37"/>
       <use x="139.013672" xlink:href="#ArialMT-35"/>
      </g>
     </g>
    </g>
    <g id="text_45">
     <!-- Relative intensity  -->
     <g transform="translate(590.051977 209.493906)rotate(-90)scale(0.21 -0.21)">
      <use xlink:href="#ArialMT-52"/>
      <use x="72.216797" xlink:href="#ArialMT-65"/>
      <use x="127.832031" xlink:href="#ArialMT-6c"/>
      <use x="150.048828" xlink:href="#ArialMT-61"/>
      <use x="205.664062" xlink:href="#ArialMT-74"/>
      <use x="233.447266" xlink:href="#ArialMT-69"/>
      <use x="255.664062" xlink:href="#ArialMT-76"/>
      <use x="305.664062" xlink:href="#ArialMT-65"/>
      <use x="361.279297" xlink:href="#ArialMT-20"/>
      <use x="389.0625" xlink:href="#ArialMT-69"/>
      <use x="411.279297" xlink:href="#ArialMT-6e"/>
      <use x="466.894531" xlink:href="#ArialMT-74"/>
      <use x="494.677734" xlink:href="#ArialMT-65"/>
      <use x="550.292969" xlink:href="#ArialMT-6e"/>
      <use x="605.908203" xlink:href="#ArialMT-73"/>
      <use x="655.908203" xlink:href="#ArialMT-69"/>
      <use x="678.125" xlink:href="#ArialMT-74"/>
      <use x="705.908203" xlink:href="#ArialMT-79"/>
      <use x="755.908203" xlink:href="#ArialMT-20"/>
     </g>
     <!--  (To control) -->
     <g transform="translate(612.816634 183.783672)rotate(-90)scale(0.21 -0.21)">
      <use xlink:href="#ArialMT-20"/>
      <use x="27.783203" xlink:href="#ArialMT-28"/>
      <use x="61.083984" xlink:href="#ArialMT-54"/>
      <use x="121.996094" xlink:href="#ArialMT-6f"/>
      <use x="177.611328" xlink:href="#ArialMT-20"/>
      <use x="205.394531" xlink:href="#ArialMT-63"/>
      <use x="255.394531" xlink:href="#ArialMT-6f"/>
      <use x="311.009766" xlink:href="#ArialMT-6e"/>
      <use x="366.625" xlink:href="#ArialMT-74"/>
      <use x="394.408203" xlink:href="#ArialMT-72"/>
      <use x="427.708984" xlink:href="#ArialMT-6f"/>
      <use x="483.324219" xlink:href="#ArialMT-6c"/>
      <use x="505.541016" xlink:href="#ArialMT-29"/>
     </g>
    </g>
   </g>
   <g id="LineCollection_3">
    <path clip-path="url(#pf6783080b1)" d="M 683.753334 196.916957 
L 683.753334 196.916957 
" style="fill:none;stroke:#000000;stroke-width:1.5;"/>
    <path clip-path="url(#pf6783080b1)" d="M 749.739318 119.55942 
L 749.739318 119.55942 
" style="fill:none;stroke:#000000;stroke-width:1.5;"/>
    <path clip-path="url(#pf6783080b1)" d="M 815.725301 41.348095 
L 815.725301 41.348095 
" style="fill:none;stroke:#000000;stroke-width:1.5;"/>
   </g>
   <g id="LineCollection_4">
    <path clip-path="url(#pf6783080b1)" d="M 699.58997 134.942007 
L 699.58997 134.942007 
" style="fill:none;stroke:#000000;stroke-width:1.5;"/>
    <path clip-path="url(#pf6783080b1)" d="M 765.575954 119.55942 
L 765.575954 119.55942 
" style="fill:none;stroke:#000000;stroke-width:1.5;"/>
    <path clip-path="url(#pf6783080b1)" d="M 831.561937 58.029071 
L 831.561937 58.029071 
" style="fill:none;stroke:#000000;stroke-width:1.5;"/>
   </g>
   <g id="line2d_44">
    <g clip-path="url(#pf6783080b1)">
     <use style="stroke:#000000;" x="683.753334" xlink:href="#m8ebefd2168" y="196.916957"/>
     <use style="stroke:#000000;" x="749.739318" xlink:href="#m8ebefd2168" y="119.55942"/>
     <use style="stroke:#000000;" x="815.725301" xlink:href="#m8ebefd2168" y="41.348095"/>
    </g>
   </g>
   <g id="line2d_45">
    <g clip-path="url(#pf6783080b1)">
     <use style="stroke:#000000;" x="683.753334" xlink:href="#m8ebefd2168" y="196.916957"/>
     <use style="stroke:#000000;" x="749.739318" xlink:href="#m8ebefd2168" y="119.55942"/>
     <use style="stroke:#000000;" x="815.725301" xlink:href="#m8ebefd2168" y="41.348095"/>
    </g>
   </g>
   <g id="line2d_46">
    <g clip-path="url(#pf6783080b1)">
     <use style="stroke:#000000;" x="699.58997" xlink:href="#m8ebefd2168" y="134.942007"/>
     <use style="stroke:#000000;" x="765.575954" xlink:href="#m8ebefd2168" y="119.55942"/>
     <use style="stroke:#000000;" x="831.561937" xlink:href="#m8ebefd2168" y="58.029071"/>
    </g>
   </g>
   <g id="line2d_47">
    <g clip-path="url(#pf6783080b1)">
     <use style="stroke:#000000;" x="699.58997" xlink:href="#m8ebefd2168" y="134.942007"/>
     <use style="stroke:#000000;" x="765.575954" xlink:href="#m8ebefd2168" y="119.55942"/>
     <use style="stroke:#000000;" x="831.561937" xlink:href="#m8ebefd2168" y="58.029071"/>
    </g>
   </g>
   <g id="patch_29">
    <path d="M 669.104446 222.11 
L 669.104446 32.31 
" style="fill:none;stroke:#000000;stroke-linecap:square;stroke-linejoin:miter;stroke-width:0.8;"/>
   </g>
   <g id="patch_30">
    <path d="M 846.210825 222.11 
L 846.210825 32.31 
" style="fill:none;stroke:#000000;stroke-linecap:square;stroke-linejoin:miter;stroke-width:0.8;"/>
   </g>
   <g id="patch_31">
    <path d="M 669.104446 222.11 
L 846.210825 222.11 
" style="fill:none;stroke:#000000;stroke-linecap:square;stroke-linejoin:miter;stroke-width:0.8;"/>
   </g>
   <g id="patch_32">
    <path d="M 669.104446 32.31 
L 846.210825 32.31 
" style="fill:none;stroke:#000000;stroke-linecap:square;stroke-linejoin:miter;stroke-width:0.8;"/>
   </g>
   <g id="text_46">
    <!-- TRPM -->
    <g transform="translate(727.911464 26.31)scale(0.21 -0.21)">
     <use xlink:href="#ArialMT-54"/>
     <use x="61.083984" xlink:href="#ArialMT-52"/>
     <use x="133.300781" xlink:href="#ArialMT-50"/>
     <use x="200" xlink:href="#ArialMT-4d"/>
    </g>
   </g>
   <g id="legend_3">
    <g id="patch_33">
     <path d="M 702.073443 90.265938 
L 760.078912 90.265938 
Q 763.078912 90.265938 763.078912 87.265938 
L 763.078912 46.33 
Q 763.078912 43.33 760.078912 43.33 
L 702.073443 43.33 
Q 699.073443 43.33 699.073443 46.33 
L 699.073443 87.265938 
Q 699.073443 90.265938 702.073443 90.265938 
z
" style="fill:#ffffff;opacity:0.8;stroke:#cccccc;stroke-linejoin:miter;"/>
    </g>
    <g id="patch_34">
     <path d="M 705.073443 60.066719 
L 735.073443 60.066719 
L 735.073443 49.566719 
L 705.073443 49.566719 
z
" style="fill:#00ff00;stroke:#000000;stroke-linejoin:miter;"/>
    </g>
    <g id="text_47">
     <!-- S -->
     <g transform="translate(747.073443 60.066719)scale(0.15 -0.15)">
      <use xlink:href="#ArialMT-53"/>
     </g>
    </g>
    <g id="patch_35">
     <path d="M 705.073443 81.284688 
L 735.073443 81.284688 
L 735.073443 70.784688 
L 705.073443 70.784688 
z
" style="fill:url(#h01fdb858bd);stroke:#000000;stroke-linejoin:miter;"/>
    </g>
    <g id="text_48">
     <!-- E -->
     <g transform="translate(747.073443 81.284688)scale(0.15 -0.15)">
      <use xlink:href="#ArialMT-45"/>
     </g>
    </g>
   </g>
  </g>
  <g id="axes_4">
   <g id="patch_36">
    <path d="M 953.260825 222.11 
L 1130.367205 222.11 
L 1130.367205 32.31 
L 953.260825 32.31 
z
" style="fill:#ffffff;"/>
   </g>
   <g id="patch_37">
    <path clip-path="url(#pf4f237505d)" d="M 961.311115 222.11 
L 974.508312 222.11 
L 974.508312 217.833956 
L 961.311115 217.833956 
z
" style="fill:#00ff00;stroke:#000000;stroke-linejoin:miter;"/>
   </g>
   <g id="patch_38">
    <path clip-path="url(#pf4f237505d)" d="M 1027.297099 222.11 
L 1040.494295 222.11 
L 1040.494295 160.53685 
L 1027.297099 160.53685 
z
" style="fill:#00ff00;stroke:#000000;stroke-linejoin:miter;"/>
   </g>
   <g id="patch_39">
    <path clip-path="url(#pf4f237505d)" d="M 1093.283082 222.11 
L 1106.480279 222.11 
L 1106.480279 41.348095 
L 1093.283082 41.348095 
z
" style="fill:#00ff00;stroke:#000000;stroke-linejoin:miter;"/>
   </g>
   <g id="patch_40">
    <path clip-path="url(#pf4f237505d)" d="M 977.147751 222.11 
L 990.344948 222.11 
L 990.344948 191.323425 
L 977.147751 191.323425 
z
" style="fill:url(#h01fdb858bd);stroke:#000000;stroke-linejoin:miter;"/>
   </g>
   <g id="patch_41">
    <path clip-path="url(#pf4f237505d)" d="M 1043.133735 222.11 
L 1056.330931 222.11 
L 1056.330931 160.53685 
L 1043.133735 160.53685 
z
" style="fill:url(#h01fdb858bd);stroke:#000000;stroke-linejoin:miter;"/>
   </g>
   <g id="patch_42">
    <path clip-path="url(#pf4f237505d)" d="M 1109.119718 222.11 
L 1122.316915 222.11 
L 1122.316915 71.255782 
L 1109.119718 71.255782 
z
" style="fill:url(#h01fdb858bd);stroke:#000000;stroke-linejoin:miter;"/>
   </g>
   <g id="matplotlib.axis_7">
    <g id="xtick_11">
     <g id="line2d_48">
      <g>
       <use style="stroke:#000000;stroke-width:0.8;" x="975.828032" xlink:href="#m79e1856119" y="222.11"/>
      </g>
     </g>
     <g id="text_49">
      <!-- 0.08 -->
      <g transform="translate(955.394047 244.141406)scale(0.21 -0.21)">
       <use xlink:href="#ArialMT-30"/>
       <use x="55.615234" xlink:href="#ArialMT-2e"/>
       <use x="83.398438" xlink:href="#ArialMT-30"/>
       <use x="139.013672" xlink:href="#ArialMT-38"/>
      </g>
     </g>
    </g>
    <g id="xtick_12">
     <g id="line2d_49">
      <g>
       <use style="stroke:#000000;stroke-width:0.8;" x="1041.814015" xlink:href="#m79e1856119" y="222.11"/>
      </g>
     </g>
     <g id="text_50">
      <!-- 0.8 -->
      <g transform="translate(1027.219015 244.141406)scale(0.21 -0.21)">
       <use xlink:href="#ArialMT-30"/>
       <use x="55.615234" xlink:href="#ArialMT-2e"/>
       <use x="83.398438" xlink:href="#ArialMT-38"/>
      </g>
     </g>
    </g>
    <g id="xtick_13">
     <g id="line2d_50">
      <g>
       <use style="stroke:#000000;stroke-width:0.8;" x="1107.799998" xlink:href="#m79e1856119" y="222.11"/>
      </g>
     </g>
     <g id="text_51">
      <!-- 8 -->
      <g transform="translate(1101.961014 244.141406)scale(0.21 -0.21)">
       <use xlink:href="#ArialMT-38"/>
      </g>
     </g>
    </g>
    <g id="text_52">
     <!-- Mg conc. (ng/ml) -->
     <g transform="translate(963.633312 267.6025)scale(0.21 -0.21)">
      <use xlink:href="#ArialMT-4d"/>
      <use x="83.300781" xlink:href="#ArialMT-67"/>
      <use x="138.916016" xlink:href="#ArialMT-20"/>
      <use x="166.699219" xlink:href="#ArialMT-63"/>
      <use x="216.699219" xlink:href="#ArialMT-6f"/>
      <use x="272.314453" xlink:href="#ArialMT-6e"/>
      <use x="327.929688" xlink:href="#ArialMT-63"/>
      <use x="377.929688" xlink:href="#ArialMT-2e"/>
      <use x="405.712891" xlink:href="#ArialMT-20"/>
      <use x="433.496094" xlink:href="#ArialMT-28"/>
      <use x="466.796875" xlink:href="#ArialMT-6e"/>
      <use x="522.412109" xlink:href="#ArialMT-67"/>
      <use x="578.027344" xlink:href="#ArialMT-2f"/>
      <use x="605.810547" xlink:href="#ArialMT-6d"/>
      <use x="689.111328" xlink:href="#ArialMT-6c"/>
      <use x="711.328125" xlink:href="#ArialMT-29"/>
     </g>
    </g>
   </g>
   <g id="matplotlib.axis_8">
    <g id="ytick_24">
     <g id="line2d_51">
      <g>
       <use style="stroke:#000000;stroke-width:0.8;" x="953.260825" xlink:href="#m5610d361e2" y="222.11"/>
      </g>
     </g>
     <g id="text_53">
      <!-- 0.0 -->
      <g transform="translate(917.070825 229.625703)scale(0.21 -0.21)">
       <use xlink:href="#ArialMT-30"/>
       <use x="55.615234" xlink:href="#ArialMT-2e"/>
       <use x="83.398438" xlink:href="#ArialMT-30"/>
      </g>
     </g>
    </g>
    <g id="ytick_25">
     <g id="line2d_52">
      <g>
       <use style="stroke:#000000;stroke-width:0.8;" x="953.260825" xlink:href="#m5610d361e2" y="191.323425"/>
      </g>
     </g>
     <g id="text_54">
      <!-- 0.5 -->
      <g transform="translate(917.070825 198.839128)scale(0.21 -0.21)">
       <use xlink:href="#ArialMT-30"/>
       <use x="55.615234" xlink:href="#ArialMT-2e"/>
       <use x="83.398438" xlink:href="#ArialMT-35"/>
      </g>
     </g>
    </g>
    <g id="ytick_26">
     <g id="line2d_53">
      <g>
       <use style="stroke:#000000;stroke-width:0.8;" x="953.260825" xlink:href="#m5610d361e2" y="160.53685"/>
      </g>
     </g>
     <g id="text_55">
      <!-- 1.0 -->
      <g transform="translate(917.070825 168.052553)scale(0.21 -0.21)">
       <use xlink:href="#ArialMT-31"/>
       <use x="55.615234" xlink:href="#ArialMT-2e"/>
       <use x="83.398438" xlink:href="#ArialMT-30"/>
      </g>
     </g>
    </g>
    <g id="ytick_27">
     <g id="line2d_54">
      <g>
       <use style="stroke:#000000;stroke-width:0.8;" x="953.260825" xlink:href="#m5610d361e2" y="129.750274"/>
      </g>
     </g>
     <g id="text_56">
      <!-- 1.5 -->
      <g transform="translate(917.070825 137.265978)scale(0.21 -0.21)">
       <use xlink:href="#ArialMT-31"/>
       <use x="55.615234" xlink:href="#ArialMT-2e"/>
       <use x="83.398438" xlink:href="#ArialMT-35"/>
      </g>
     </g>
    </g>
    <g id="ytick_28">
     <g id="line2d_55">
      <g>
       <use style="stroke:#000000;stroke-width:0.8;" x="953.260825" xlink:href="#m5610d361e2" y="98.963699"/>
      </g>
     </g>
     <g id="text_57">
      <!-- 2.0 -->
      <g transform="translate(917.070825 106.479402)scale(0.21 -0.21)">
       <use xlink:href="#ArialMT-32"/>
       <use x="55.615234" xlink:href="#ArialMT-2e"/>
       <use x="83.398438" xlink:href="#ArialMT-30"/>
      </g>
     </g>
    </g>
    <g id="ytick_29">
     <g id="line2d_56">
      <g>
       <use style="stroke:#000000;stroke-width:0.8;" x="953.260825" xlink:href="#m5610d361e2" y="68.177124"/>
      </g>
     </g>
     <g id="text_58">
      <!-- 2.5 -->
      <g transform="translate(917.070825 75.692827)scale(0.21 -0.21)">
       <use xlink:href="#ArialMT-32"/>
       <use x="55.615234" xlink:href="#ArialMT-2e"/>
       <use x="83.398438" xlink:href="#ArialMT-35"/>
      </g>
     </g>
    </g>
    <g id="ytick_30">
     <g id="line2d_57">
      <g>
       <use style="stroke:#000000;stroke-width:0.8;" x="953.260825" xlink:href="#m5610d361e2" y="37.390549"/>
      </g>
     </g>
     <g id="text_59">
      <!-- 3.0 -->
      <g transform="translate(917.070825 44.906252)scale(0.21 -0.21)">
       <use xlink:href="#ArialMT-33"/>
       <use x="55.615234" xlink:href="#ArialMT-2e"/>
       <use x="83.398438" xlink:href="#ArialMT-30"/>
      </g>
     </g>
    </g>
    <g id="text_60">
     <!-- Relative intensity  -->
     <g transform="translate(885.886325 209.493906)rotate(-90)scale(0.21 -0.21)">
      <use xlink:href="#ArialMT-52"/>
      <use x="72.216797" xlink:href="#ArialMT-65"/>
      <use x="127.832031" xlink:href="#ArialMT-6c"/>
      <use x="150.048828" xlink:href="#ArialMT-61"/>
      <use x="205.664062" xlink:href="#ArialMT-74"/>
      <use x="233.447266" xlink:href="#ArialMT-69"/>
      <use x="255.664062" xlink:href="#ArialMT-76"/>
      <use x="305.664062" xlink:href="#ArialMT-65"/>
      <use x="361.279297" xlink:href="#ArialMT-20"/>
      <use x="389.0625" xlink:href="#ArialMT-69"/>
      <use x="411.279297" xlink:href="#ArialMT-6e"/>
      <use x="466.894531" xlink:href="#ArialMT-74"/>
      <use x="494.677734" xlink:href="#ArialMT-65"/>
      <use x="550.292969" xlink:href="#ArialMT-6e"/>
      <use x="605.908203" xlink:href="#ArialMT-73"/>
      <use x="655.908203" xlink:href="#ArialMT-69"/>
      <use x="678.125" xlink:href="#ArialMT-74"/>
      <use x="705.908203" xlink:href="#ArialMT-79"/>
      <use x="755.908203" xlink:href="#ArialMT-20"/>
     </g>
     <!--  (To control) -->
     <g transform="translate(908.650982 183.783672)rotate(-90)scale(0.21 -0.21)">
      <use xlink:href="#ArialMT-20"/>
      <use x="27.783203" xlink:href="#ArialMT-28"/>
      <use x="61.083984" xlink:href="#ArialMT-54"/>
      <use x="121.996094" xlink:href="#ArialMT-6f"/>
      <use x="177.611328" xlink:href="#ArialMT-20"/>
      <use x="205.394531" xlink:href="#ArialMT-63"/>
      <use x="255.394531" xlink:href="#ArialMT-6f"/>
      <use x="311.009766" xlink:href="#ArialMT-6e"/>
      <use x="366.625" xlink:href="#ArialMT-74"/>
      <use x="394.408203" xlink:href="#ArialMT-72"/>
      <use x="427.708984" xlink:href="#ArialMT-6f"/>
      <use x="483.324219" xlink:href="#ArialMT-6c"/>
      <use x="505.541016" xlink:href="#ArialMT-29"/>
     </g>
    </g>
   </g>
   <g id="LineCollection_5">
    <path clip-path="url(#pf4f237505d)" d="M 967.909714 217.833956 
L 967.909714 217.833956 
" style="fill:none;stroke:#000000;stroke-width:1.5;"/>
    <path clip-path="url(#pf4f237505d)" d="M 1033.895697 160.53685 
L 1033.895697 160.53685 
" style="fill:none;stroke:#000000;stroke-width:1.5;"/>
    <path clip-path="url(#pf4f237505d)" d="M 1099.88168 41.348095 
L 1099.88168 41.348095 
" style="fill:none;stroke:#000000;stroke-width:1.5;"/>
   </g>
   <g id="LineCollection_6">
    <path clip-path="url(#pf4f237505d)" d="M 983.74635 191.323425 
L 983.74635 191.323425 
" style="fill:none;stroke:#000000;stroke-width:1.5;"/>
    <path clip-path="url(#pf4f237505d)" d="M 1049.732333 160.53685 
L 1049.732333 160.53685 
" style="fill:none;stroke:#000000;stroke-width:1.5;"/>
    <path clip-path="url(#pf4f237505d)" d="M 1115.718316 71.255782 
L 1115.718316 71.255782 
" style="fill:none;stroke:#000000;stroke-width:1.5;"/>
   </g>
   <g id="line2d_58">
    <g clip-path="url(#pf4f237505d)">
     <use style="stroke:#000000;" x="967.909714" xlink:href="#m8ebefd2168" y="217.833956"/>
     <use style="stroke:#000000;" x="1033.895697" xlink:href="#m8ebefd2168" y="160.53685"/>
     <use style="stroke:#000000;" x="1099.88168" xlink:href="#m8ebefd2168" y="41.348095"/>
    </g>
   </g>
   <g id="line2d_59">
    <g clip-path="url(#pf4f237505d)">
     <use style="stroke:#000000;" x="967.909714" xlink:href="#m8ebefd2168" y="217.833956"/>
     <use style="stroke:#000000;" x="1033.895697" xlink:href="#m8ebefd2168" y="160.53685"/>
     <use style="stroke:#000000;" x="1099.88168" xlink:href="#m8ebefd2168" y="41.348095"/>
    </g>
   </g>
   <g id="line2d_60">
    <g clip-path="url(#pf4f237505d)">
     <use style="stroke:#000000;" x="983.74635" xlink:href="#m8ebefd2168" y="191.323425"/>
     <use style="stroke:#000000;" x="1049.732333" xlink:href="#m8ebefd2168" y="160.53685"/>
     <use style="stroke:#000000;" x="1115.718316" xlink:href="#m8ebefd2168" y="71.255782"/>
    </g>
   </g>
   <g id="line2d_61">
    <g clip-path="url(#pf4f237505d)">
     <use style="stroke:#000000;" x="983.74635" xlink:href="#m8ebefd2168" y="191.323425"/>
     <use style="stroke:#000000;" x="1049.732333" xlink:href="#m8ebefd2168" y="160.53685"/>
     <use style="stroke:#000000;" x="1115.718316" xlink:href="#m8ebefd2168" y="71.255782"/>
    </g>
   </g>
   <g id="patch_43">
    <path d="M 953.260825 222.11 
L 953.260825 32.31 
" style="fill:none;stroke:#000000;stroke-linecap:square;stroke-linejoin:miter;stroke-width:0.8;"/>
   </g>
   <g id="patch_44">
    <path d="M 1130.367205 222.11 
L 1130.367205 32.31 
" style="fill:none;stroke:#000000;stroke-linecap:square;stroke-linejoin:miter;stroke-width:0.8;"/>
   </g>
   <g id="patch_45">
    <path d="M 953.260825 222.11 
L 1130.367205 222.11 
" style="fill:none;stroke:#000000;stroke-linecap:square;stroke-linejoin:miter;stroke-width:0.8;"/>
   </g>
   <g id="patch_46">
    <path d="M 953.260825 32.31 
L 1130.367205 32.31 
" style="fill:none;stroke:#000000;stroke-linecap:square;stroke-linejoin:miter;stroke-width:0.8;"/>
   </g>
   <g id="text_61">
    <!-- Nuclear M7CK -->
    <defs>
     <path d="M 7.328125 0 
L 7.328125 71.578125 
L 16.796875 71.578125 
L 16.796875 36.078125 
L 52.34375 71.578125 
L 65.1875 71.578125 
L 35.15625 42.578125 
L 66.5 0 
L 54 0 
L 28.515625 36.234375 
L 16.796875 24.8125 
L 16.796875 0 
z
" id="ArialMT-4b"/>
    </defs>
    <g transform="translate(973.545968 26.31)scale(0.21 -0.21)">
     <use xlink:href="#ArialMT-4e"/>
     <use x="72.216797" xlink:href="#ArialMT-75"/>
     <use x="127.832031" xlink:href="#ArialMT-63"/>
     <use x="177.832031" xlink:href="#ArialMT-6c"/>
     <use x="200.048828" xlink:href="#ArialMT-65"/>
     <use x="255.664062" xlink:href="#ArialMT-61"/>
     <use x="311.279297" xlink:href="#ArialMT-72"/>
     <use x="344.580078" xlink:href="#ArialMT-20"/>
     <use x="372.363281" xlink:href="#ArialMT-4d"/>
     <use x="455.664062" xlink:href="#ArialMT-37"/>
     <use x="511.279297" xlink:href="#ArialMT-43"/>
     <use x="583.496094" xlink:href="#ArialMT-4b"/>
    </g>
   </g>
   <g id="legend_4">
    <g id="patch_47">
     <path d="M 986.229822 90.265938 
L 1044.235291 90.265938 
Q 1047.235291 90.265938 1047.235291 87.265938 
L 1047.235291 46.33 
Q 1047.235291 43.33 1044.235291 43.33 
L 986.229822 43.33 
Q 983.229822 43.33 983.229822 46.33 
L 983.229822 87.265938 
Q 983.229822 90.265938 986.229822 90.265938 
z
" style="fill:#ffffff;opacity:0.8;stroke:#cccccc;stroke-linejoin:miter;"/>
    </g>
    <g id="patch_48">
     <path d="M 989.229822 60.066719 
L 1019.229822 60.066719 
L 1019.229822 49.566719 
L 989.229822 49.566719 
z
" style="fill:#00ff00;stroke:#000000;stroke-linejoin:miter;"/>
    </g>
    <g id="text_62">
     <!-- S -->
     <g transform="translate(1031.229822 60.066719)scale(0.15 -0.15)">
      <use xlink:href="#ArialMT-53"/>
     </g>
    </g>
    <g id="patch_49">
     <path d="M 989.229822 81.284688 
L 1019.229822 81.284688 
L 1019.229822 70.784688 
L 989.229822 70.784688 
z
" style="fill:url(#h01fdb858bd);stroke:#000000;stroke-linejoin:miter;"/>
    </g>
    <g id="text_63">
     <!-- E -->
     <g transform="translate(1031.229822 81.284688)scale(0.15 -0.15)">
      <use xlink:href="#ArialMT-45"/>
     </g>
    </g>
   </g>
  </g>
  <g id="axes_5">
   <g id="patch_50">
    <path d="M 1237.417205 222.11 
L 1414.523584 222.11 
L 1414.523584 32.31 
L 1237.417205 32.31 
z
" style="fill:#ffffff;"/>
   </g>
   <g id="patch_51">
    <path clip-path="url(#p0a20ef9dac)" d="M 1245.467495 222.11 
L 1258.664691 222.11 
L 1258.664691 210.355818 
L 1245.467495 210.355818 
z
" style="fill:#00ff00;stroke:#000000;stroke-linejoin:miter;"/>
   </g>
   <g id="patch_52">
    <path clip-path="url(#p0a20ef9dac)" d="M 1311.453478 222.11 
L 1324.650675 222.11 
L 1324.650675 143.517867 
L 1311.453478 143.517867 
z
" style="fill:#00ff00;stroke:#000000;stroke-linejoin:miter;"/>
   </g>
   <g id="patch_53">
    <path clip-path="url(#p0a20ef9dac)" d="M 1377.439461 222.11 
L 1390.636658 222.11 
L 1390.636658 41.991831 
L 1377.439461 41.991831 
z
" style="fill:#00ff00;stroke:#000000;stroke-linejoin:miter;"/>
   </g>
   <g id="patch_54">
    <path clip-path="url(#p0a20ef9dac)" d="M 1261.304131 222.11 
L 1274.501327 222.11 
L 1274.501327 194.602754 
L 1261.304131 194.602754 
z
" style="fill:url(#h01fdb858bd);stroke:#000000;stroke-linejoin:miter;"/>
   </g>
   <g id="patch_55">
    <path clip-path="url(#p0a20ef9dac)" d="M 1327.290114 222.11 
L 1340.487311 222.11 
L 1340.487311 143.517867 
L 1327.290114 143.517867 
z
" style="fill:url(#h01fdb858bd);stroke:#000000;stroke-linejoin:miter;"/>
   </g>
   <g id="patch_56">
    <path clip-path="url(#p0a20ef9dac)" d="M 1393.276097 222.11 
L 1406.473294 222.11 
L 1406.473294 41.348095 
L 1393.276097 41.348095 
z
" style="fill:url(#h01fdb858bd);stroke:#000000;stroke-linejoin:miter;"/>
   </g>
   <g id="matplotlib.axis_9">
    <g id="xtick_14">
     <g id="line2d_62">
      <g>
       <use style="stroke:#000000;stroke-width:0.8;" x="1259.984411" xlink:href="#m79e1856119" y="222.11"/>
      </g>
     </g>
     <g id="text_64">
      <!-- 0.08 -->
      <g transform="translate(1239.550427 244.141406)scale(0.21 -0.21)">
       <use xlink:href="#ArialMT-30"/>
       <use x="55.615234" xlink:href="#ArialMT-2e"/>
       <use x="83.398438" xlink:href="#ArialMT-30"/>
       <use x="139.013672" xlink:href="#ArialMT-38"/>
      </g>
     </g>
    </g>
    <g id="xtick_15">
     <g id="line2d_63">
      <g>
       <use style="stroke:#000000;stroke-width:0.8;" x="1325.970394" xlink:href="#m79e1856119" y="222.11"/>
      </g>
     </g>
     <g id="text_65">
      <!-- 0.8 -->
      <g transform="translate(1311.375394 244.141406)scale(0.21 -0.21)">
       <use xlink:href="#ArialMT-30"/>
       <use x="55.615234" xlink:href="#ArialMT-2e"/>
       <use x="83.398438" xlink:href="#ArialMT-38"/>
      </g>
     </g>
    </g>
    <g id="xtick_16">
     <g id="line2d_64">
      <g>
       <use style="stroke:#000000;stroke-width:0.8;" x="1391.956378" xlink:href="#m79e1856119" y="222.11"/>
      </g>
     </g>
     <g id="text_66">
      <!-- 8 -->
      <g transform="translate(1386.117393 244.141406)scale(0.21 -0.21)">
       <use xlink:href="#ArialMT-38"/>
      </g>
     </g>
    </g>
    <g id="text_67">
     <!-- Mg conc. (ng/ml) -->
     <g transform="translate(1247.789691 267.6025)scale(0.21 -0.21)">
      <use xlink:href="#ArialMT-4d"/>
      <use x="83.300781" xlink:href="#ArialMT-67"/>
      <use x="138.916016" xlink:href="#ArialMT-20"/>
      <use x="166.699219" xlink:href="#ArialMT-63"/>
      <use x="216.699219" xlink:href="#ArialMT-6f"/>
      <use x="272.314453" xlink:href="#ArialMT-6e"/>
      <use x="327.929688" xlink:href="#ArialMT-63"/>
      <use x="377.929688" xlink:href="#ArialMT-2e"/>
      <use x="405.712891" xlink:href="#ArialMT-20"/>
      <use x="433.496094" xlink:href="#ArialMT-28"/>
      <use x="466.796875" xlink:href="#ArialMT-6e"/>
      <use x="522.412109" xlink:href="#ArialMT-67"/>
      <use x="578.027344" xlink:href="#ArialMT-2f"/>
      <use x="605.810547" xlink:href="#ArialMT-6d"/>
      <use x="689.111328" xlink:href="#ArialMT-6c"/>
      <use x="711.328125" xlink:href="#ArialMT-29"/>
     </g>
    </g>
   </g>
   <g id="matplotlib.axis_10">
    <g id="ytick_31">
     <g id="line2d_65">
      <g>
       <use style="stroke:#000000;stroke-width:0.8;" x="1237.417205" xlink:href="#m5610d361e2" y="222.11"/>
      </g>
     </g>
     <g id="text_68">
      <!-- 0.0 -->
      <g transform="translate(1201.227205 229.625703)scale(0.21 -0.21)">
       <use xlink:href="#ArialMT-30"/>
       <use x="55.615234" xlink:href="#ArialMT-2e"/>
       <use x="83.398438" xlink:href="#ArialMT-30"/>
      </g>
     </g>
    </g>
    <g id="ytick_32">
     <g id="line2d_66">
      <g>
       <use style="stroke:#000000;stroke-width:0.8;" x="1237.417205" xlink:href="#m5610d361e2" y="182.813934"/>
      </g>
     </g>
     <g id="text_69">
      <!-- 0.5 -->
      <g transform="translate(1201.227205 190.329637)scale(0.21 -0.21)">
       <use xlink:href="#ArialMT-30"/>
       <use x="55.615234" xlink:href="#ArialMT-2e"/>
       <use x="83.398438" xlink:href="#ArialMT-35"/>
      </g>
     </g>
    </g>
    <g id="ytick_33">
     <g id="line2d_67">
      <g>
       <use style="stroke:#000000;stroke-width:0.8;" x="1237.417205" xlink:href="#m5610d361e2" y="143.517867"/>
      </g>
     </g>
     <g id="text_70">
      <!-- 1.0 -->
      <g transform="translate(1201.227205 151.033571)scale(0.21 -0.21)">
       <use xlink:href="#ArialMT-31"/>
       <use x="55.615234" xlink:href="#ArialMT-2e"/>
       <use x="83.398438" xlink:href="#ArialMT-30"/>
      </g>
     </g>
    </g>
    <g id="ytick_34">
     <g id="line2d_68">
      <g>
       <use style="stroke:#000000;stroke-width:0.8;" x="1237.417205" xlink:href="#m5610d361e2" y="104.221801"/>
      </g>
     </g>
     <g id="text_71">
      <!-- 1.5 -->
      <g transform="translate(1201.227205 111.737504)scale(0.21 -0.21)">
       <use xlink:href="#ArialMT-31"/>
       <use x="55.615234" xlink:href="#ArialMT-2e"/>
       <use x="83.398438" xlink:href="#ArialMT-35"/>
      </g>
     </g>
    </g>
    <g id="ytick_35">
     <g id="line2d_69">
      <g>
       <use style="stroke:#000000;stroke-width:0.8;" x="1237.417205" xlink:href="#m5610d361e2" y="64.925735"/>
      </g>
     </g>
     <g id="text_72">
      <!-- 2.0 -->
      <g transform="translate(1201.227205 72.441438)scale(0.21 -0.21)">
       <use xlink:href="#ArialMT-32"/>
       <use x="55.615234" xlink:href="#ArialMT-2e"/>
       <use x="83.398438" xlink:href="#ArialMT-30"/>
      </g>
     </g>
    </g>
    <g id="text_73">
     <!-- Relative intensity  -->
     <g transform="translate(1170.042705 209.493906)rotate(-90)scale(0.21 -0.21)">
      <use xlink:href="#ArialMT-52"/>
      <use x="72.216797" xlink:href="#ArialMT-65"/>
      <use x="127.832031" xlink:href="#ArialMT-6c"/>
      <use x="150.048828" xlink:href="#ArialMT-61"/>
      <use x="205.664062" xlink:href="#ArialMT-74"/>
      <use x="233.447266" xlink:href="#ArialMT-69"/>
      <use x="255.664062" xlink:href="#ArialMT-76"/>
      <use x="305.664062" xlink:href="#ArialMT-65"/>
      <use x="361.279297" xlink:href="#ArialMT-20"/>
      <use x="389.0625" xlink:href="#ArialMT-69"/>
      <use x="411.279297" xlink:href="#ArialMT-6e"/>
      <use x="466.894531" xlink:href="#ArialMT-74"/>
      <use x="494.677734" xlink:href="#ArialMT-65"/>
      <use x="550.292969" xlink:href="#ArialMT-6e"/>
      <use x="605.908203" xlink:href="#ArialMT-73"/>
      <use x="655.908203" xlink:href="#ArialMT-69"/>
      <use x="678.125" xlink:href="#ArialMT-74"/>
      <use x="705.908203" xlink:href="#ArialMT-79"/>
      <use x="755.908203" xlink:href="#ArialMT-20"/>
     </g>
     <!--  (To control) -->
     <g transform="translate(1192.807361 183.783672)rotate(-90)scale(0.21 -0.21)">
      <use xlink:href="#ArialMT-20"/>
      <use x="27.783203" xlink:href="#ArialMT-28"/>
      <use x="61.083984" xlink:href="#ArialMT-54"/>
      <use x="121.996094" xlink:href="#ArialMT-6f"/>
      <use x="177.611328" xlink:href="#ArialMT-20"/>
      <use x="205.394531" xlink:href="#ArialMT-63"/>
      <use x="255.394531" xlink:href="#ArialMT-6f"/>
      <use x="311.009766" xlink:href="#ArialMT-6e"/>
      <use x="366.625" xlink:href="#ArialMT-74"/>
      <use x="394.408203" xlink:href="#ArialMT-72"/>
      <use x="427.708984" xlink:href="#ArialMT-6f"/>
      <use x="483.324219" xlink:href="#ArialMT-6c"/>
      <use x="505.541016" xlink:href="#ArialMT-29"/>
     </g>
    </g>
   </g>
   <g id="LineCollection_7">
    <path clip-path="url(#p0a20ef9dac)" d="M 1252.066093 210.355818 
L 1252.066093 210.355818 
" style="fill:none;stroke:#000000;stroke-width:1.5;"/>
    <path clip-path="url(#p0a20ef9dac)" d="M 1318.052076 143.517867 
L 1318.052076 143.517867 
" style="fill:none;stroke:#000000;stroke-width:1.5;"/>
    <path clip-path="url(#p0a20ef9dac)" d="M 1384.03806 41.991831 
L 1384.03806 41.991831 
" style="fill:none;stroke:#000000;stroke-width:1.5;"/>
   </g>
   <g id="LineCollection_8">
    <path clip-path="url(#p0a20ef9dac)" d="M 1267.902729 194.602754 
L 1267.902729 194.602754 
" style="fill:none;stroke:#000000;stroke-width:1.5;"/>
    <path clip-path="url(#p0a20ef9dac)" d="M 1333.888712 143.517867 
L 1333.888712 143.517867 
" style="fill:none;stroke:#000000;stroke-width:1.5;"/>
    <path clip-path="url(#p0a20ef9dac)" d="M 1399.874696 41.348095 
L 1399.874696 41.348095 
" style="fill:none;stroke:#000000;stroke-width:1.5;"/>
   </g>
   <g id="line2d_70">
    <g clip-path="url(#p0a20ef9dac)">
     <use style="stroke:#000000;" x="1252.066093" xlink:href="#m8ebefd2168" y="210.355818"/>
     <use style="stroke:#000000;" x="1318.052076" xlink:href="#m8ebefd2168" y="143.517867"/>
     <use style="stroke:#000000;" x="1384.03806" xlink:href="#m8ebefd2168" y="41.991831"/>
    </g>
   </g>
   <g id="line2d_71">
    <g clip-path="url(#p0a20ef9dac)">
     <use style="stroke:#000000;" x="1252.066093" xlink:href="#m8ebefd2168" y="210.355818"/>
     <use style="stroke:#000000;" x="1318.052076" xlink:href="#m8ebefd2168" y="143.517867"/>
     <use style="stroke:#000000;" x="1384.03806" xlink:href="#m8ebefd2168" y="41.991831"/>
    </g>
   </g>
   <g id="line2d_72">
    <g clip-path="url(#p0a20ef9dac)">
     <use style="stroke:#000000;" x="1267.902729" xlink:href="#m8ebefd2168" y="194.602754"/>
     <use style="stroke:#000000;" x="1333.888712" xlink:href="#m8ebefd2168" y="143.517867"/>
     <use style="stroke:#000000;" x="1399.874696" xlink:href="#m8ebefd2168" y="41.348095"/>
    </g>
   </g>
   <g id="line2d_73">
    <g clip-path="url(#p0a20ef9dac)">
     <use style="stroke:#000000;" x="1267.902729" xlink:href="#m8ebefd2168" y="194.602754"/>
     <use style="stroke:#000000;" x="1333.888712" xlink:href="#m8ebefd2168" y="143.517867"/>
     <use style="stroke:#000000;" x="1399.874696" xlink:href="#m8ebefd2168" y="41.348095"/>
    </g>
   </g>
   <g id="patch_57">
    <path d="M 1237.417205 222.11 
L 1237.417205 32.31 
" style="fill:none;stroke:#000000;stroke-linecap:square;stroke-linejoin:miter;stroke-width:0.8;"/>
   </g>
   <g id="patch_58">
    <path d="M 1414.523584 222.11 
L 1414.523584 32.31 
" style="fill:none;stroke:#000000;stroke-linecap:square;stroke-linejoin:miter;stroke-width:0.8;"/>
   </g>
   <g id="patch_59">
    <path d="M 1237.417205 222.11 
L 1414.523584 222.11 
" style="fill:none;stroke:#000000;stroke-linecap:square;stroke-linejoin:miter;stroke-width:0.8;"/>
   </g>
   <g id="patch_60">
    <path d="M 1237.417205 32.31 
L 1414.523584 32.31 
" style="fill:none;stroke:#000000;stroke-linecap:square;stroke-linejoin:miter;stroke-width:0.8;"/>
   </g>
   <g id="text_74">
    <!-- Phosphorylated H3S10 -->
    <defs>
     <path d="M 6.59375 -19.875 
L 6.59375 51.859375 
L 14.59375 51.859375 
L 14.59375 45.125 
Q 17.4375 49.078125 21 51.046875 
Q 24.5625 53.03125 29.640625 53.03125 
Q 36.28125 53.03125 41.359375 49.609375 
Q 46.4375 46.1875 49.015625 39.953125 
Q 51.609375 33.734375 51.609375 26.3125 
Q 51.609375 18.359375 48.75 11.984375 
Q 45.90625 5.609375 40.453125 2.21875 
Q 35.015625 -1.171875 29 -1.171875 
Q 24.609375 -1.171875 21.109375 0.6875 
Q 17.625 2.546875 15.375 5.375 
L 15.375 -19.875 
z
M 14.546875 25.640625 
Q 14.546875 15.625 18.59375 10.84375 
Q 22.65625 6.0625 28.421875 6.0625 
Q 34.28125 6.0625 38.453125 11.015625 
Q 42.625 15.96875 42.625 26.375 
Q 42.625 36.28125 38.546875 41.203125 
Q 34.46875 46.140625 28.8125 46.140625 
Q 23.1875 46.140625 18.859375 40.890625 
Q 14.546875 35.640625 14.546875 25.640625 
z
" id="ArialMT-70"/>
     <path d="M 8.015625 0 
L 8.015625 71.578125 
L 17.484375 71.578125 
L 17.484375 42.1875 
L 54.6875 42.1875 
L 54.6875 71.578125 
L 64.15625 71.578125 
L 64.15625 0 
L 54.6875 0 
L 54.6875 33.734375 
L 17.484375 33.734375 
L 17.484375 0 
z
" id="ArialMT-48"/>
    </defs>
    <g transform="translate(1217.987738 26.31)scale(0.21 -0.21)">
     <use xlink:href="#ArialMT-50"/>
     <use x="66.699219" xlink:href="#ArialMT-68"/>
     <use x="122.314453" xlink:href="#ArialMT-6f"/>
     <use x="177.929688" xlink:href="#ArialMT-73"/>
     <use x="227.929688" xlink:href="#ArialMT-70"/>
     <use x="283.544922" xlink:href="#ArialMT-68"/>
     <use x="339.160156" xlink:href="#ArialMT-6f"/>
     <use x="394.775391" xlink:href="#ArialMT-72"/>
     <use x="428.076172" xlink:href="#ArialMT-79"/>
     <use x="478.076172" xlink:href="#ArialMT-6c"/>
     <use x="500.292969" xlink:href="#ArialMT-61"/>
     <use x="555.908203" xlink:href="#ArialMT-74"/>
     <use x="583.691406" xlink:href="#ArialMT-65"/>
     <use x="639.306641" xlink:href="#ArialMT-64"/>
     <use x="694.921875" xlink:href="#ArialMT-20"/>
     <use x="722.705078" xlink:href="#ArialMT-48"/>
     <use x="794.921875" xlink:href="#ArialMT-33"/>
     <use x="850.537109" xlink:href="#ArialMT-53"/>
     <use x="917.236328" xlink:href="#ArialMT-31"/>
     <use x="972.851562" xlink:href="#ArialMT-30"/>
    </g>
   </g>
   <g id="legend_5">
    <g id="patch_61">
     <path d="M 1270.386202 90.265938 
L 1328.39167 90.265938 
Q 1331.39167 90.265938 1331.39167 87.265938 
L 1331.39167 46.33 
Q 1331.39167 43.33 1328.39167 43.33 
L 1270.386202 43.33 
Q 1267.386202 43.33 1267.386202 46.33 
L 1267.386202 87.265938 
Q 1267.386202 90.265938 1270.386202 90.265938 
z
" style="fill:#ffffff;opacity:0.8;stroke:#cccccc;stroke-linejoin:miter;"/>
    </g>
    <g id="patch_62">
     <path d="M 1273.386202 60.066719 
L 1303.386202 60.066719 
L 1303.386202 49.566719 
L 1273.386202 49.566719 
z
" style="fill:#00ff00;stroke:#000000;stroke-linejoin:miter;"/>
    </g>
    <g id="text_75">
     <!-- S -->
     <g transform="translate(1315.386202 60.066719)scale(0.15 -0.15)">
      <use xlink:href="#ArialMT-53"/>
     </g>
    </g>
    <g id="patch_63">
     <path d="M 1273.386202 81.284688 
L 1303.386202 81.284688 
L 1303.386202 70.784688 
L 1273.386202 70.784688 
z
" style="fill:url(#h01fdb858bd);stroke:#000000;stroke-linejoin:miter;"/>
    </g>
    <g id="text_76">
     <!-- E -->
     <g transform="translate(1315.386202 81.284688)scale(0.15 -0.15)">
      <use xlink:href="#ArialMT-45"/>
     </g>
    </g>
   </g>
  </g>
 </g>
 <defs>
  <clipPath id="pfb155be7e0">
   <rect height="189.8" width="177.106379" x="100.791687" y="32.31"/>
  </clipPath>
  <clipPath id="peb6775089b">
   <rect height="189.8" width="177.106379" x="384.948067" y="32.31"/>
  </clipPath>
  <clipPath id="pf6783080b1">
   <rect height="189.8" width="177.106379" x="669.104446" y="32.31"/>
  </clipPath>
  <clipPath id="pf4f237505d">
   <rect height="189.8" width="177.106379" x="953.260825" y="32.31"/>
  </clipPath>
  <clipPath id="p0a20ef9dac">
   <rect height="189.8" width="177.106379" x="1237.417205" y="32.31"/>
  </clipPath>
 </defs>
 <defs>
  <pattern height="72" id="h01fdb858bd" patternUnits="userSpaceOnUse" width="72" x="0" y="0">
   <rect fill="#ee82ee" height="73" width="73" x="0" y="0"/>
   <path d="M -36 36 
L 36 108 
M -33 33 
L 39 105 
M -30 30 
L 42 102 
M -27 27 
L 45 99 
M -24 24 
L 48 96 
M -21 21 
L 51 93 
M -18 18 
L 54 90 
M -15 15 
L 57 87 
M -12 12 
L 60 84 
M -9 9 
L 63 81 
M -6 6 
L 66 78 
M -3 3 
L 69 75 
M 0 0 
L 72 72 
M 3 -3 
L 75 69 
M 6 -6 
L 78 66 
M 9 -9 
L 81 63 
M 12 -12 
L 84 60 
M 15 -15 
L 87 57 
M 18 -18 
L 90 54 
M 21 -21 
L 93 51 
M 24 -24 
L 96 48 
M 27 -27 
L 99 45 
M 30 -30 
L 102 42 
M 33 -33 
L 105 39 
M 36 -36 
L 108 36 
" style="fill:#000000;stroke:#000000;stroke-linecap:butt;stroke-linejoin:miter;stroke-width:1.0;"/>
  </pattern>
 </defs>
</svg>
