<?xml version="1.0" encoding="utf-8" standalone="no"?>
<!DOCTYPE svg PUBLIC "-//W3C//DTD SVG 1.1//EN"
  "http://www.w3.org/Graphics/SVG/1.1/DTD/svg11.dtd">
<!-- Created with matplotlib (http://matplotlib.org/) -->
<svg height="251.422812pt" version="1.1" viewBox="0 0 374.7 251.422812" width="374.7pt" xmlns="http://www.w3.org/2000/svg" xmlns:xlink="http://www.w3.org/1999/xlink">
 <defs>
  <style type="text/css">
*{stroke-linecap:butt;stroke-linejoin:round;}
  </style>
 </defs>
 <g id="figure_1">
  <g id="patch_1">
   <path d="M 0 251.422812 
L 374.7 251.422812 
L 374.7 0 
L 0 0 
z
" style="fill:#ffffff;"/>
  </g>
  <g id="axes_1">
   <g id="patch_2">
    <path d="M 29.2 228.14 
L 364 228.14 
L 364 10.7 
L 29.2 10.7 
z
" style="fill:#ffffff;"/>
   </g>
   <g id="matplotlib.axis_1">
    <g id="xtick_1">
     <g id="line2d_1">
      <defs>
       <path d="M 0 0 
L 0 3.5 
" id="mb4ea93aca7" style="stroke:#000000;stroke-width:0.8;"/>
      </defs>
      <g>
       <use style="stroke:#000000;stroke-width:0.8;" x="44.418182" xlink:href="#mb4ea93aca7" y="228.14"/>
      </g>
     </g>
     <g id="text_1">
      <!-- 0 -->
      <defs>
       <path d="M 3.609375 32.71875 
Q 3.609375 44.046875 7.03125 52.21875 
Q 10.453125 60.40625 16.109375 64.40625 
Q 20.515625 67.578125 25.203125 67.578125 
Q 32.8125 67.578125 38.875 59.8125 
Q 46.4375 50.203125 46.4375 33.734375 
Q 46.4375 22.21875 43.109375 14.15625 
Q 39.796875 6.109375 34.640625 2.46875 
Q 29.5 -1.171875 24.703125 -1.171875 
Q 15.234375 -1.171875 8.9375 10.015625 
Q 3.609375 19.4375 3.609375 32.71875 
z
M 13.1875 31.5 
Q 13.1875 17.828125 16.546875 9.1875 
Q 19.34375 1.90625 24.859375 1.90625 
Q 27.484375 1.90625 30.3125 4.265625 
Q 33.15625 6.640625 34.625 12.203125 
Q 36.859375 20.609375 36.859375 35.890625 
Q 36.859375 47.21875 34.515625 54.78125 
Q 32.765625 60.40625 29.984375 62.75 
Q 27.984375 64.359375 25.140625 64.359375 
Q 21.828125 64.359375 19.234375 61.375 
Q 15.71875 57.328125 14.453125 48.625 
Q 13.1875 39.9375 13.1875 31.5 
z
" id="TimesNewRomanPSMT-30"/>
      </defs>
      <g transform="translate(41.918182 242.08375)scale(0.1 -0.1)">
       <use xlink:href="#TimesNewRomanPSMT-30"/>
      </g>
     </g>
    </g>
    <g id="xtick_2">
     <g id="line2d_2">
      <g>
       <use style="stroke:#000000;stroke-width:0.8;" x="86.690909" xlink:href="#mb4ea93aca7" y="228.14"/>
      </g>
     </g>
     <g id="text_2">
      <!-- 25 -->
      <defs>
       <path d="M 45.84375 12.75 
L 41.21875 0 
L 2.15625 0 
L 2.15625 1.8125 
Q 19.390625 17.53125 26.421875 27.484375 
Q 33.453125 37.453125 33.453125 45.703125 
Q 33.453125 52 29.59375 56.046875 
Q 25.734375 60.109375 20.359375 60.109375 
Q 15.484375 60.109375 11.59375 57.25 
Q 7.71875 54.390625 5.859375 48.875 
L 4.046875 48.875 
Q 5.28125 57.90625 10.328125 62.734375 
Q 15.375 67.578125 22.953125 67.578125 
Q 31 67.578125 36.390625 62.40625 
Q 41.796875 57.234375 41.796875 50.203125 
Q 41.796875 45.171875 39.453125 40.140625 
Q 35.84375 32.234375 27.734375 23.390625 
Q 15.578125 10.109375 12.546875 7.375 
L 29.828125 7.375 
Q 35.109375 7.375 37.234375 7.765625 
Q 39.359375 8.15625 41.0625 9.34375 
Q 42.78125 10.546875 44.046875 12.75 
z
" id="TimesNewRomanPSMT-32"/>
       <path d="M 43.40625 66.21875 
L 39.59375 57.90625 
L 19.671875 57.90625 
L 15.328125 49.03125 
Q 28.265625 47.125 35.84375 39.40625 
Q 42.328125 32.765625 42.328125 23.78125 
Q 42.328125 18.5625 40.203125 14.109375 
Q 38.09375 9.671875 34.859375 6.546875 
Q 31.640625 3.421875 27.6875 1.515625 
Q 22.078125 -1.171875 16.15625 -1.171875 
Q 10.203125 -1.171875 7.484375 0.84375 
Q 4.78125 2.875 4.78125 5.328125 
Q 4.78125 6.6875 5.90625 7.734375 
Q 7.03125 8.796875 8.734375 8.796875 
Q 10.015625 8.796875 10.96875 8.40625 
Q 11.921875 8.015625 14.203125 6.390625 
Q 17.875 3.859375 21.625 3.859375 
Q 27.34375 3.859375 31.65625 8.171875 
Q 35.984375 12.5 35.984375 18.703125 
Q 35.984375 24.703125 32.125 29.90625 
Q 28.265625 35.109375 21.484375 37.9375 
Q 16.15625 40.140625 6.984375 40.484375 
L 19.671875 66.21875 
z
" id="TimesNewRomanPSMT-35"/>
      </defs>
      <g transform="translate(81.690909 242.08375)scale(0.1 -0.1)">
       <use xlink:href="#TimesNewRomanPSMT-32"/>
       <use x="50" xlink:href="#TimesNewRomanPSMT-35"/>
      </g>
     </g>
    </g>
    <g id="xtick_3">
     <g id="line2d_3">
      <g>
       <use style="stroke:#000000;stroke-width:0.8;" x="128.963636" xlink:href="#mb4ea93aca7" y="228.14"/>
      </g>
     </g>
     <g id="text_3">
      <!-- 50 -->
      <g transform="translate(123.963636 242.08375)scale(0.1 -0.1)">
       <use xlink:href="#TimesNewRomanPSMT-35"/>
       <use x="50" xlink:href="#TimesNewRomanPSMT-30"/>
      </g>
     </g>
    </g>
    <g id="xtick_4">
     <g id="line2d_4">
      <g>
       <use style="stroke:#000000;stroke-width:0.8;" x="171.236364" xlink:href="#mb4ea93aca7" y="228.14"/>
      </g>
     </g>
     <g id="text_4">
      <!-- 75 -->
      <defs>
       <path d="M 10.0625 66.21875 
L 45.5625 66.21875 
L 45.5625 64.359375 
L 23.484375 -1.375 
L 18.015625 -1.375 
L 37.796875 58.25 
L 19.578125 58.25 
Q 14.0625 58.25 11.71875 56.9375 
Q 7.625 54.6875 5.125 50 
L 3.71875 50.53125 
z
" id="TimesNewRomanPSMT-37"/>
      </defs>
      <g transform="translate(166.236364 242.08375)scale(0.1 -0.1)">
       <use xlink:href="#TimesNewRomanPSMT-37"/>
       <use x="50" xlink:href="#TimesNewRomanPSMT-35"/>
      </g>
     </g>
    </g>
    <g id="xtick_5">
     <g id="line2d_5">
      <g>
       <use style="stroke:#000000;stroke-width:0.8;" x="213.509091" xlink:href="#mb4ea93aca7" y="228.14"/>
      </g>
     </g>
     <g id="text_5">
      <!-- 100 -->
      <defs>
       <path d="M 11.71875 59.71875 
L 27.828125 67.578125 
L 29.4375 67.578125 
L 29.4375 11.671875 
Q 29.4375 6.109375 29.90625 4.734375 
Q 30.375 3.375 31.828125 2.640625 
Q 33.296875 1.90625 37.796875 1.8125 
L 37.796875 0 
L 12.890625 0 
L 12.890625 1.8125 
Q 17.578125 1.90625 18.9375 2.609375 
Q 20.3125 3.328125 20.84375 4.515625 
Q 21.390625 5.71875 21.390625 11.671875 
L 21.390625 47.40625 
Q 21.390625 54.640625 20.90625 56.6875 
Q 20.5625 58.25 19.65625 58.984375 
Q 18.75 59.71875 17.484375 59.71875 
Q 15.671875 59.71875 12.453125 58.203125 
z
" id="TimesNewRomanPSMT-31"/>
      </defs>
      <g transform="translate(206.009091 242.08375)scale(0.1 -0.1)">
       <use xlink:href="#TimesNewRomanPSMT-31"/>
       <use x="50" xlink:href="#TimesNewRomanPSMT-30"/>
       <use x="100" xlink:href="#TimesNewRomanPSMT-30"/>
      </g>
     </g>
    </g>
    <g id="xtick_6">
     <g id="line2d_6">
      <g>
       <use style="stroke:#000000;stroke-width:0.8;" x="255.781818" xlink:href="#mb4ea93aca7" y="228.14"/>
      </g>
     </g>
     <g id="text_6">
      <!-- 125 -->
      <g transform="translate(248.281818 242.08375)scale(0.1 -0.1)">
       <use xlink:href="#TimesNewRomanPSMT-31"/>
       <use x="50" xlink:href="#TimesNewRomanPSMT-32"/>
       <use x="100" xlink:href="#TimesNewRomanPSMT-35"/>
      </g>
     </g>
    </g>
    <g id="xtick_7">
     <g id="line2d_7">
      <g>
       <use style="stroke:#000000;stroke-width:0.8;" x="298.054545" xlink:href="#mb4ea93aca7" y="228.14"/>
      </g>
     </g>
     <g id="text_7">
      <!-- 150 -->
      <g transform="translate(290.554545 242.08375)scale(0.1 -0.1)">
       <use xlink:href="#TimesNewRomanPSMT-31"/>
       <use x="50" xlink:href="#TimesNewRomanPSMT-35"/>
       <use x="100" xlink:href="#TimesNewRomanPSMT-30"/>
      </g>
     </g>
    </g>
    <g id="xtick_8">
     <g id="line2d_8">
      <g>
       <use style="stroke:#000000;stroke-width:0.8;" x="340.327273" xlink:href="#mb4ea93aca7" y="228.14"/>
      </g>
     </g>
     <g id="text_8">
      <!-- 175 -->
      <g transform="translate(332.827273 242.08375)scale(0.1 -0.1)">
       <use xlink:href="#TimesNewRomanPSMT-31"/>
       <use x="50" xlink:href="#TimesNewRomanPSMT-37"/>
       <use x="100" xlink:href="#TimesNewRomanPSMT-35"/>
      </g>
     </g>
    </g>
   </g>
   <g id="matplotlib.axis_2">
    <g id="ytick_1">
     <g id="line2d_9">
      <defs>
       <path d="M 0 0 
L -3.5 0 
" id="mea38c0f0b5" style="stroke:#000000;stroke-width:0.8;"/>
      </defs>
      <g>
       <use style="stroke:#000000;stroke-width:0.8;" x="29.2" xlink:href="#mea38c0f0b5" y="189.395981"/>
      </g>
     </g>
     <g id="text_9">
      <!-- 450 -->
      <defs>
       <path d="M 46.53125 24.421875 
L 46.53125 17.484375 
L 37.640625 17.484375 
L 37.640625 0 
L 29.59375 0 
L 29.59375 17.484375 
L 1.5625 17.484375 
L 1.5625 23.734375 
L 32.28125 67.578125 
L 37.640625 67.578125 
L 37.640625 24.421875 
z
M 29.59375 24.421875 
L 29.59375 57.28125 
L 6.34375 24.421875 
z
" id="TimesNewRomanPSMT-34"/>
      </defs>
      <g transform="translate(7.2 192.867856)scale(0.1 -0.1)">
       <use xlink:href="#TimesNewRomanPSMT-34"/>
       <use x="50" xlink:href="#TimesNewRomanPSMT-35"/>
       <use x="100" xlink:href="#TimesNewRomanPSMT-30"/>
      </g>
     </g>
    </g>
    <g id="ytick_2">
     <g id="line2d_10">
      <g>
       <use style="stroke:#000000;stroke-width:0.8;" x="29.2" xlink:href="#mea38c0f0b5" y="149.157951"/>
      </g>
     </g>
     <g id="text_10">
      <!-- 500 -->
      <g transform="translate(7.2 152.629826)scale(0.1 -0.1)">
       <use xlink:href="#TimesNewRomanPSMT-35"/>
       <use x="50" xlink:href="#TimesNewRomanPSMT-30"/>
       <use x="100" xlink:href="#TimesNewRomanPSMT-30"/>
      </g>
     </g>
    </g>
    <g id="ytick_3">
     <g id="line2d_11">
      <g>
       <use style="stroke:#000000;stroke-width:0.8;" x="29.2" xlink:href="#mea38c0f0b5" y="108.919921"/>
      </g>
     </g>
     <g id="text_11">
      <!-- 550 -->
      <g transform="translate(7.2 112.391796)scale(0.1 -0.1)">
       <use xlink:href="#TimesNewRomanPSMT-35"/>
       <use x="50" xlink:href="#TimesNewRomanPSMT-35"/>
       <use x="100" xlink:href="#TimesNewRomanPSMT-30"/>
      </g>
     </g>
    </g>
    <g id="ytick_4">
     <g id="line2d_12">
      <g>
       <use style="stroke:#000000;stroke-width:0.8;" x="29.2" xlink:href="#mea38c0f0b5" y="68.681892"/>
      </g>
     </g>
     <g id="text_12">
      <!-- 600 -->
      <defs>
       <path d="M 44.828125 67.578125 
L 44.828125 65.765625 
Q 38.375 65.140625 34.296875 63.203125 
Q 30.21875 61.28125 26.234375 57.328125 
Q 22.265625 53.375 19.65625 48.515625 
Q 17.046875 43.65625 15.28125 36.96875 
Q 22.3125 41.796875 29.390625 41.796875 
Q 36.1875 41.796875 41.15625 36.328125 
Q 46.140625 30.859375 46.140625 22.265625 
Q 46.140625 13.96875 41.109375 7.125 
Q 35.0625 -1.171875 25.09375 -1.171875 
Q 18.3125 -1.171875 13.578125 3.328125 
Q 4.296875 12.0625 4.296875 25.984375 
Q 4.296875 34.859375 7.859375 42.859375 
Q 11.421875 50.875 18.03125 57.078125 
Q 24.65625 63.28125 30.703125 65.421875 
Q 36.765625 67.578125 42 67.578125 
z
M 14.453125 33.40625 
Q 13.578125 26.8125 13.578125 22.75 
Q 13.578125 18.0625 15.3125 12.5625 
Q 17.046875 7.078125 20.453125 3.859375 
Q 22.953125 1.5625 26.515625 1.5625 
Q 30.765625 1.5625 34.109375 5.5625 
Q 37.453125 9.578125 37.453125 17 
Q 37.453125 25.34375 34.125 31.4375 
Q 30.8125 37.546875 24.703125 37.546875 
Q 22.859375 37.546875 20.734375 36.765625 
Q 18.609375 35.984375 14.453125 33.40625 
z
" id="TimesNewRomanPSMT-36"/>
      </defs>
      <g transform="translate(7.2 72.153767)scale(0.1 -0.1)">
       <use xlink:href="#TimesNewRomanPSMT-36"/>
       <use x="50" xlink:href="#TimesNewRomanPSMT-30"/>
       <use x="100" xlink:href="#TimesNewRomanPSMT-30"/>
      </g>
     </g>
    </g>
    <g id="ytick_5">
     <g id="line2d_13">
      <g>
       <use style="stroke:#000000;stroke-width:0.8;" x="29.2" xlink:href="#mea38c0f0b5" y="28.443862"/>
      </g>
     </g>
     <g id="text_13">
      <!-- 650 -->
      <g transform="translate(7.2 31.915737)scale(0.1 -0.1)">
       <use xlink:href="#TimesNewRomanPSMT-36"/>
       <use x="50" xlink:href="#TimesNewRomanPSMT-35"/>
       <use x="100" xlink:href="#TimesNewRomanPSMT-30"/>
      </g>
     </g>
    </g>
   </g>
   <g id="line2d_14">
    <path clip-path="url(#pda616fee7b)" d="M 44.418182 201.467389 
L 46.109091 200.986109 
L 47.8 201.316683 
L 49.490909 202.448137 
L 51.181818 204.747504 
L 56.254545 213.952439 
L 57.945455 216.163169 
L 59.636364 217.594346 
L 61.327273 218.256364 
L 63.018182 218.226029 
L 64.709091 217.608519 
L 66.4 216.515351 
L 68.090909 215.053373 
L 69.781818 213.319742 
L 73.163636 209.370277 
L 78.236364 203.20881 
L 81.618182 199.479636 
L 83.309091 197.819316 
L 85 196.320024 
L 86.690909 194.99337 
L 88.381818 193.846054 
L 90.072727 192.880456 
L 91.763636 192.095197 
L 93.454545 191.485665 
L 95.145455 191.044552 
L 96.836364 190.762366 
L 98.527273 190.6279 
L 100.218182 190.628662 
L 103.6 190.981761 
L 106.981818 191.709981 
L 110.363636 192.702172 
L 115.436364 194.461874 
L 123.890909 197.43295 
L 128.963636 198.923032 
L 132.345455 199.725561 
L 135.727273 200.359473 
L 139.109091 200.822524 
L 142.490909 201.12028 
L 147.563636 201.283135 
L 152.636364 201.154122 
L 157.709091 200.796728 
L 164.472727 200.076145 
L 174.618182 198.731205 
L 193.218182 196.233894 
L 206.745455 194.65725 
L 228.727273 192.364212 
L 274.381818 187.5949 
L 333.563636 181.437961 
L 348.781818 179.895564 
L 348.781818 179.895564 
" style="fill:none;stroke:#4c72b0;stroke-linecap:square;stroke-width:1.5;"/>
   </g>
   <g id="line2d_15">
    <path clip-path="url(#pda616fee7b)" d="M 44.418182 201.467389 
L 46.109091 200.061864 
L 47.8 199.57774 
L 49.490909 200.366524 
L 51.181818 202.501072 
L 56.254545 211.430604 
L 57.945455 213.494631 
L 59.636364 214.708298 
L 61.327273 215.064915 
L 63.018182 214.629187 
L 64.709091 213.497926 
L 66.4 211.778317 
L 68.090909 209.575549 
L 69.781818 206.988139 
L 73.163636 201.009783 
L 78.236364 191.115677 
L 83.309091 181.418245 
L 86.690909 175.560569 
L 90.072727 170.398046 
L 91.763636 168.107599 
L 93.454545 166.018229 
L 95.145455 164.130448 
L 96.836364 162.441439 
L 98.527273 160.945525 
L 100.218182 159.634534 
L 101.909091 158.498293 
L 103.6 157.524943 
L 105.290909 156.701431 
L 106.981818 156.01381 
L 110.363636 154.987948 
L 113.745455 154.329581 
L 117.127273 153.924476 
L 123.890909 153.468361 
L 130.654545 152.939481 
L 134.036364 152.50319 
L 137.418182 151.90635 
L 140.8 151.131188 
L 144.181818 150.1717 
L 147.563636 149.031361 
L 150.945455 147.721068 
L 156.018182 145.473634 
L 161.090909 142.948727 
L 167.854545 139.277282 
L 178 133.432614 
L 198.290909 121.675269 
L 230.418182 103.271355 
L 242.254545 96.151803 
L 254.090909 88.766059 
L 265.927273 81.127009 
L 277.763636 73.250774 
L 289.6 65.138912 
L 301.436364 56.778635 
L 313.272727 48.153496 
L 325.109091 39.250541 
L 336.945455 30.062107 
L 348.781818 20.583636 
L 348.781818 20.583636 
" style="fill:none;stroke:#55a868;stroke-linecap:square;stroke-width:1.5;"/>
   </g>
   <g id="patch_3">
    <path d="M 29.2 228.14 
L 29.2 10.7 
" style="fill:none;stroke:#000000;stroke-linecap:square;stroke-linejoin:miter;stroke-width:0.8;"/>
   </g>
   <g id="patch_4">
    <path d="M 364 228.14 
L 364 10.7 
" style="fill:none;stroke:#000000;stroke-linecap:square;stroke-linejoin:miter;stroke-width:0.8;"/>
   </g>
   <g id="patch_5">
    <path d="M 29.2 228.14 
L 364 228.14 
" style="fill:none;stroke:#000000;stroke-linecap:square;stroke-linejoin:miter;stroke-width:0.8;"/>
   </g>
   <g id="patch_6">
    <path d="M 29.2 10.7 
L 364 10.7 
" style="fill:none;stroke:#000000;stroke-linecap:square;stroke-linejoin:miter;stroke-width:0.8;"/>
   </g>
   <g id="legend_1">
    <g id="patch_7">
     <path d="M 36.2 46.978125 
L 80.7 46.978125 
Q 82.7 46.978125 82.7 44.978125 
L 82.7 17.7 
Q 82.7 15.7 80.7 15.7 
L 36.2 15.7 
Q 34.2 15.7 34.2 17.7 
L 34.2 44.978125 
Q 34.2 46.978125 36.2 46.978125 
z
" style="fill:#ffffff;opacity:0.8;stroke:#cccccc;stroke-linejoin:miter;"/>
    </g>
    <g id="line2d_16">
     <path d="M 38.2 23.2 
L 58.2 23.2 
" style="fill:none;stroke:#4c72b0;stroke-linecap:square;stroke-width:1.5;"/>
    </g>
    <g id="line2d_17"/>
    <g id="text_14">
     <!-- 0.5 -->
     <defs>
      <path d="M 12.5 9.46875 
Q 14.796875 9.46875 16.359375 7.875 
Q 17.921875 6.296875 17.921875 4.046875 
Q 17.921875 1.8125 16.328125 0.21875 
Q 14.75 -1.375 12.5 -1.375 
Q 10.25 -1.375 8.65625 0.21875 
Q 7.078125 1.8125 7.078125 4.046875 
Q 7.078125 6.34375 8.65625 7.90625 
Q 10.25 9.46875 12.5 9.46875 
z
" id="TimesNewRomanPSMT-2e"/>
     </defs>
     <g transform="translate(66.2 26.7)scale(0.1 -0.1)">
      <use xlink:href="#TimesNewRomanPSMT-30"/>
      <use x="50" xlink:href="#TimesNewRomanPSMT-2e"/>
      <use x="75" xlink:href="#TimesNewRomanPSMT-35"/>
     </g>
    </g>
    <g id="line2d_18">
     <path d="M 38.2 37.339062 
L 58.2 37.339062 
" style="fill:none;stroke:#55a868;stroke-linecap:square;stroke-width:1.5;"/>
    </g>
    <g id="line2d_19"/>
    <g id="text_15">
     <!-- 2.5 -->
     <g transform="translate(66.2 40.839062)scale(0.1 -0.1)">
      <use xlink:href="#TimesNewRomanPSMT-32"/>
      <use x="50" xlink:href="#TimesNewRomanPSMT-2e"/>
      <use x="75" xlink:href="#TimesNewRomanPSMT-35"/>
     </g>
    </g>
   </g>
  </g>
 </g>
 <defs>
  <clipPath id="pda616fee7b">
   <rect height="217.44" width="334.8" x="29.2" y="10.7"/>
  </clipPath>
 </defs>
</svg>
